<svg width="630" height="473" viewBox="0 0 630 473" fill="none" xmlns="http://www.w3.org/2000/svg">
<path d="M575.759 147.569C567.718 141.019 556.832 140.071 546.895 141.878C536.28 143.775 526.614 148.879 516.812 153.17C506.694 157.642 496.395 160.849 485.283 161.391C474.216 161.978 463.149 160.397 452.399 157.687C429.949 152.041 409.352 141.2 387.806 133.024C377.01 128.914 365.853 125.345 354.38 123.719C348.146 122.816 341.867 122.59 335.589 123.267C329.626 123.9 323.799 125.3 317.972 126.746C305.099 129.953 292.271 132.753 279.081 134.334C265.485 135.96 251.753 136.502 238.066 136.051C237.208 136.005 237.208 134.65 238.066 134.695C262.91 135.599 287.754 132.934 311.874 126.926C323.393 124.035 334.821 121.054 346.791 121.641C358.4 122.229 369.873 125.3 380.804 129.049C402.712 136.593 423.309 147.659 445.533 154.39C456.826 157.777 468.525 160.126 480.359 160.171C492.375 160.217 503.667 157.416 514.643 152.628C525.484 147.93 536.099 142.103 547.889 140.297C557.917 138.761 568.622 139.98 576.707 146.575C577.385 147.162 576.436 148.156 575.759 147.569Z" fill="#271F30"/>
<path d="M332.472 106.284C301.169 119.789 265.62 117.531 233.595 107.729C216.249 102.399 198.994 95.262 180.52 95.3072C161.91 95.3524 144.248 101.857 126.044 104.748C109.512 107.368 91.3085 107.051 77.125 97.114C76.4023 96.6171 77.0799 95.4427 77.8026 95.9396C90.9019 105.109 107.525 105.922 122.882 103.844C140.273 101.496 156.986 95.4427 174.557 94.1779C192.128 92.9132 208.706 98.1981 225.193 103.619C241.635 108.994 258.258 113.195 275.558 114.188C294.71 115.318 314.088 112.743 331.749 105.109C332.562 104.748 333.24 105.922 332.472 106.284Z" fill="#271F30"/>
<path d="M593.013 218.893C583.121 211.846 571.422 207.51 559.317 206.335C553.264 205.748 547.166 205.974 541.203 207.013C535.015 208.097 529.052 210.175 523.135 212.253C512.159 216.047 501.273 218.938 489.709 216.273C479.727 213.969 470.693 208.775 461.839 203.851C451.405 198.024 440.564 192.062 428.458 190.978C427.6 190.887 427.6 189.532 428.458 189.622C450.05 191.565 466.266 207.781 486.412 213.969C491.516 215.55 496.846 216.363 502.176 216.047C508.726 215.64 515.095 213.608 521.238 211.485C527.426 209.362 533.615 207.058 540.119 205.839C545.72 204.8 551.457 204.483 557.103 204.845C570.203 205.658 582.986 210.13 593.691 217.763C594.414 218.215 593.736 219.39 593.013 218.893Z" fill="#271F30"/>
<path d="M473.267 236.238C455.696 217.673 429.858 210.084 404.879 209.859C390.38 209.723 375.925 211.801 361.787 214.827C348.326 217.673 335.272 221.377 321.36 219.525C306.815 217.583 293.219 211.349 280.21 204.799C279.442 204.393 280.119 203.219 280.887 203.625C293.264 209.859 306.137 215.776 319.914 217.944C326.961 219.028 334.052 218.938 341.099 217.809C348.236 216.679 355.192 214.782 362.284 213.291C388.121 207.871 415.63 205.567 441.016 214.376C453.528 218.712 465.091 225.623 474.216 235.244C474.803 235.922 473.854 236.87 473.267 236.238Z" fill="#271F30"/>
<path d="M263.903 249.744C256.54 252.319 248.997 249.925 242.267 246.718C234.723 243.104 227.632 238.632 219.907 235.425C212.183 232.218 203.872 230.05 195.47 231.089C187.791 232.037 180.7 235.47 173.969 239.129C167.6 242.607 161.322 246.401 154.546 249.067C147.003 252.003 138.872 253.403 130.787 253.222C114.209 252.861 100.116 244.595 84.984 238.994C70.8457 233.754 52.0098 231.405 40.6721 243.691C40.0849 244.324 39.1362 243.375 39.7234 242.743C48.622 233.121 62.8055 232.037 75.0014 234.612C90.9013 237.955 104.633 247.666 120.623 250.783C129.16 252.454 138.104 252.228 146.551 250.196C154.411 248.299 161.457 244.595 168.504 240.665C174.873 237.096 181.332 233.392 188.333 231.269C195.606 229.056 203.194 229.011 210.557 230.818C219.546 233.031 227.812 237.413 235.898 241.839C244.254 246.356 253.921 251.867 263.632 248.479C264.355 248.163 264.716 249.473 263.903 249.744Z" fill="#271F30"/>
<path d="M144.97 271.516C126.27 272.645 110.867 259.953 93.2052 256.113C88.5075 255.074 83.5388 254.622 78.7508 255.436C74.4596 256.158 70.575 257.92 66.871 260.178C60.502 264.063 54.3137 269.077 46.5444 269.619C37.1039 270.251 28.7474 264.379 21.7008 258.868C21.0233 258.326 21.9718 257.378 22.6494 257.92C29.5153 263.25 37.7362 269.077 46.9509 268.219C54.946 267.496 61.2699 261.714 68.0003 257.965C83.4937 249.292 100.071 256.113 114.932 262.663C124.463 266.818 134.355 270.838 144.925 270.206C145.829 270.116 145.828 271.471 144.97 271.516Z" fill="#271F30"/>
<path d="M571.332 357.882C564.782 351.648 555.07 349.209 546.353 351.603C537.228 354.087 531.356 361.947 524.038 367.367C509.448 378.163 489.574 376.446 473.538 370.077C454.612 362.579 438.847 349.028 419.966 341.394C410.752 337.645 400.769 335.251 390.741 335.929C380.984 336.606 372.673 340.807 364.949 346.499C357.27 352.145 350.043 358.83 341.054 362.399C331.433 366.193 320.592 365.38 311.558 360.366C310.79 359.959 311.468 358.785 312.235 359.191C321.45 364.296 332.472 364.747 342.093 360.501C350.133 356.933 356.728 350.97 363.729 345.731C370.912 340.355 378.545 336.155 387.579 334.89C396.884 333.625 406.37 335.206 415.178 338.142C434.466 344.601 450.366 357.927 468.66 366.464C485.553 374.369 507.28 378.073 523.316 366.193C531.311 360.276 537.59 351.829 547.888 349.841C556.606 348.17 565.866 350.79 572.28 356.933C572.913 357.52 571.964 358.514 571.332 357.882Z" fill="#271F30"/>
<path d="M397.788 383.086C390.335 378.253 381.481 375.95 372.583 376.672C364.452 377.35 356.773 380.376 349.32 383.403C342.093 386.339 334.775 389.41 327.006 390.675C318.875 391.985 310.654 390.991 302.84 388.597C293.49 385.706 284.817 381.099 276.28 376.446C275.512 376.04 276.19 374.866 276.958 375.272C292.586 383.719 309.751 392.617 328.09 389.094C343.403 386.158 356.864 376.672 372.628 375.317C381.752 374.549 390.877 376.943 398.511 381.912C399.188 382.409 398.511 383.583 397.788 383.086Z" fill="#271F30"/>
<path d="M227.271 413.712C217.424 404.497 205.318 397.857 192.264 394.469C185.624 392.753 178.803 391.895 171.937 391.94C164.303 392.03 156.715 393.25 149.126 393.972C134.401 395.373 120.262 392.888 106.485 387.513C93.3409 382.409 80.9642 373.555 66.826 371.387C50.2937 368.858 37.5105 379.834 26.9859 391.082C26.3986 391.714 25.4501 390.765 26.0373 390.133C34.71 380.873 44.9184 371.297 58.1081 369.806C72.5626 368.18 85.7072 376.672 98.2645 382.499C112.719 389.23 128.303 393.837 144.338 392.934C152.333 392.482 160.238 391.036 168.278 390.63C175.099 390.268 181.965 390.765 188.65 392.166C203.421 395.192 217.198 402.329 228.219 412.673C228.852 413.35 227.903 414.299 227.271 413.712Z" fill="#271F30"/>
<path d="M491.742 128.281C479.094 138.083 462.607 133.747 448.83 129.23C431.756 123.584 414.456 120.015 396.388 119.654C395.53 119.654 395.53 118.299 396.388 118.299C413.01 118.615 429.407 121.461 445.217 126.61C459.536 131.263 477.333 137.812 490.793 127.333C491.471 126.791 492.42 127.739 491.742 128.281Z" fill="#271F30"/>
<path d="M369.963 46.1619C354.695 45.0327 339.97 40.7867 325.199 37.2182C309.841 33.4691 294.438 30.9847 278.583 32.7012C262.593 34.4177 247.1 39.2509 231.426 42.6838C216.339 46.0264 201.026 47.5622 185.578 46.7943C168.188 45.9361 151.023 42.2773 134.807 36.0438C133.994 35.7276 134.355 34.4177 135.168 34.7339C164.664 46.0716 196.871 48.4656 227.767 42.0514C243.17 38.8443 258.257 34.1466 273.841 31.8881C288.882 29.72 303.563 30.9396 318.378 34.1918C335.543 37.9409 352.392 43.4517 369.963 44.7616C370.821 44.8971 370.821 46.2523 369.963 46.1619Z" fill="#271F30"/>
<path d="M125.502 159.358C112.312 154.48 98.6254 161.436 85.4357 162.701C78.344 163.378 71.2975 162.701 64.3864 161.075C57.6109 159.449 51.0161 157.055 44.105 156.016C36.6971 154.886 28.7923 155.338 22.3782 159.539C21.6554 160.036 20.9779 158.861 21.7006 158.365C33.0835 150.957 46.9959 154.932 59.0112 158.274C66.5546 160.397 74.098 161.933 81.9576 161.617C89.4558 161.346 96.6379 159.268 103.956 157.732C111.228 156.242 118.726 155.428 125.818 158.048C126.676 158.319 126.315 159.629 125.502 159.358Z" fill="#271F30"/>
<path d="M585.922 296.405C574.449 286.196 558.278 295.23 545.54 297.173C530.814 299.431 516.089 295.366 502.041 291.436C501.182 291.21 501.544 289.9 502.402 290.126C517.941 294.462 534.021 298.754 550.147 294.914C561.936 292.114 576.346 286.151 586.916 295.456C587.548 295.998 586.599 296.947 585.922 296.405Z" fill="#271F30"/>
<path d="M441.468 423.243C437.809 418.907 432.163 416.558 426.471 417.28C423.219 417.687 420.238 419.178 417.256 420.487C414.772 421.572 412.242 422.475 409.668 423.198C398.601 426.269 386.721 425.818 375.926 422.023C375.113 421.752 375.474 420.442 376.287 420.713C388.393 424.914 401.763 424.914 413.823 420.397C419.063 418.455 423.942 415.338 429.768 415.79C434.692 416.151 439.254 418.5 442.461 422.249C443.003 422.972 442.01 423.92 441.468 423.243Z" fill="#271F30"/>
<path d="M364.588 419.539C356.367 417.145 347.92 415.97 339.338 416.015C338.48 416.015 338.48 414.66 339.338 414.66C348.01 414.615 356.593 415.835 364.949 418.229C365.762 418.5 365.446 419.81 364.588 419.539Z" fill="#271F30"/>
<path d="M353.838 68.4308C345.842 74.574 338.209 81.1688 330.891 88.1702C330.259 88.7574 329.31 87.8089 329.943 87.2216C337.305 80.1751 345.075 73.5351 353.16 67.3016C353.838 66.7144 354.515 67.8888 353.838 68.4308Z" fill="#271F30"/>
<path d="M432.162 92.2355C431.394 87.9895 430.581 83.7435 429.813 79.4523C429.633 78.5941 430.943 78.2327 431.123 79.091C431.891 83.3369 432.704 87.5829 433.472 91.8741C433.608 92.7323 432.298 93.0937 432.162 92.2355Z" fill="#271F30"/>
<path d="M171.711 119.157C170.264 119.157 169.091 117.984 169.091 116.537C169.091 115.09 170.264 113.917 171.711 113.917C173.158 113.917 174.331 115.09 174.331 116.537C174.331 117.984 173.158 119.157 171.711 119.157Z" fill="#271F30"/>
<path d="M514.011 335.522C512.29 335.522 510.894 334.127 510.894 332.405C510.894 330.684 512.29 329.288 514.011 329.288C515.733 329.288 517.128 330.684 517.128 332.405C517.128 334.127 515.733 335.522 514.011 335.522Z" fill="#271F30"/>
<path d="M529.097 53.1632C525.156 53.1632 521.961 49.9679 521.961 46.0263C521.961 42.0847 525.156 38.8894 529.097 38.8894C533.039 38.8894 536.234 42.0847 536.234 46.0263C536.234 49.9679 533.039 53.1632 529.097 53.1632Z" fill="#271F30"/>
<path d="M514.779 60.0743C513.457 60.0743 512.385 59.0025 512.385 57.6803C512.385 56.3581 513.457 55.2863 514.779 55.2863C516.101 55.2863 517.173 56.3581 517.173 57.6803C517.173 59.0025 516.101 60.0743 514.779 60.0743Z" fill="#271F30"/>
<path d="M378.003 461.863C375.06 461.863 372.673 459.477 372.673 456.533C372.673 453.589 375.06 451.203 378.003 451.203C380.947 451.203 383.333 453.589 383.333 456.533C383.333 459.477 380.947 461.863 378.003 461.863Z" fill="#271F30"/>
<path d="M130.29 62.4683C127.696 62.4683 125.592 60.365 125.592 57.7706C125.592 55.1761 127.696 53.0729 130.29 53.0729C132.885 53.0729 134.988 55.1761 134.988 57.7706C134.988 60.365 132.885 62.4683 130.29 62.4683Z" fill="#271F30"/>
<path d="M124.282 52.1243C122.686 52.1243 121.392 50.83 121.392 49.2334C121.392 47.6368 122.686 46.3425 124.282 46.3425C125.879 46.3425 127.173 47.6368 127.173 49.2334C127.173 50.83 125.879 52.1243 124.282 52.1243Z" fill="#271F30"/>
<path d="M521.916 45.665C517.974 45.665 514.779 42.4697 514.779 38.5281C514.779 34.5865 517.974 31.3912 521.916 31.3912C525.857 31.3912 529.053 34.5865 529.053 38.5281C529.053 42.4697 525.857 45.665 521.916 45.665Z" fill="#E1E5EE"/>
<path d="M525.484 339.723C523.514 339.723 521.916 338.125 521.916 336.154C521.916 334.184 523.514 332.586 525.484 332.586C527.455 332.586 529.053 334.184 529.053 336.154C529.053 338.125 527.455 339.723 525.484 339.723Z" fill="#E1E5EE"/>
<path d="M400.047 451.519C398.3 451.519 396.885 450.104 396.885 448.357C396.885 446.611 398.3 445.195 400.047 445.195C401.793 445.195 403.208 446.611 403.208 448.357C403.208 450.104 401.793 451.519 400.047 451.519Z" fill="#E1E5EE"/>
<path d="M147.636 46.3426C143.494 46.3426 140.137 42.9855 140.137 38.8443C140.137 34.7031 143.494 31.3461 147.636 31.3461C151.777 31.3461 155.134 34.7031 155.134 38.8443C155.134 42.9855 151.777 46.3426 147.636 46.3426Z" fill="#E1E5EE"/>
<path d="M271.086 159.9C270.188 159.9 269.46 159.172 269.46 158.274C269.46 157.376 270.188 156.648 271.086 156.648C271.984 156.648 272.712 157.376 272.712 158.274C272.712 159.172 271.984 159.9 271.086 159.9Z" fill="#E1E5EE"/>
<path d="M287.754 63.1006C288.702 65.314 289.606 67.5725 290.554 69.7858C290.87 70.5989 289.56 70.9603 289.244 70.1472C288.296 67.9339 287.392 65.6753 286.444 63.462C286.127 62.6489 287.437 62.2876 287.754 63.1006Z" fill="#E1E5EE"/>
<path d="M287.979 64.1847C286.308 65.9464 284.998 67.9338 284.14 70.1924C283.823 71.0054 282.513 70.6441 282.83 69.831C283.823 67.3466 285.224 65.1785 287.031 63.2361C287.618 62.6038 288.611 63.5523 287.979 64.1847Z" fill="#E1E5EE"/>
<path d="M290.193 70.9603C288.883 73.3995 287.392 75.7032 285.721 77.8713C285.179 78.5489 284.004 77.8713 284.546 77.1938C286.218 74.9804 287.708 72.6768 289.018 70.2827C289.47 69.5148 290.599 70.1924 290.193 70.9603Z" fill="#E1E5EE"/>
<path d="M284.049 70.2828C284.592 72.8123 285.088 75.3418 285.63 77.8714C285.811 78.7296 284.501 79.091 284.321 78.2327C283.778 75.7032 283.282 73.1737 282.74 70.6441C282.559 69.8311 283.869 69.4697 284.049 70.2828Z" fill="#E1E5EE"/>
<path d="M160.509 256.474C161.593 258.462 162.316 260.585 162.632 262.843C162.767 263.701 161.457 264.063 161.322 263.205C161.006 261.082 160.373 259.094 159.334 257.197C158.928 256.384 160.102 255.706 160.509 256.474Z" fill="#E1E5EE"/>
<path d="M160.6 256.881C159.696 259.275 158.657 261.579 157.483 263.792C157.076 264.56 155.902 263.882 156.308 263.114C157.438 260.991 158.431 258.778 159.29 256.519C159.606 255.706 160.916 256.068 160.6 256.881Z" fill="#E1E5EE"/>
<path d="M162.903 263.792C161.728 265.463 160.599 267.134 159.425 268.806C158.928 269.528 157.753 268.851 158.25 268.128C159.425 266.457 160.554 264.786 161.728 263.114C162.225 262.392 163.4 263.069 162.903 263.792Z" fill="#E1E5EE"/>
<path d="M157.98 263.566C158.928 264.876 159.38 266.366 159.38 267.947C159.38 268.806 158.025 268.806 158.025 267.947C158.025 266.592 157.618 265.328 156.805 264.243C156.308 263.521 157.483 262.843 157.98 263.566Z" fill="#E1E5EE"/>
<path d="M538.357 384.351C539.577 387.016 540.797 389.636 542.016 392.301C542.378 393.069 541.203 393.792 540.842 392.978C539.622 390.313 538.403 387.694 537.183 385.029C536.822 384.261 537.951 383.583 538.357 384.351Z" fill="#E1E5EE"/>
<path d="M538.132 384.712C536.957 387.513 535.783 390.313 534.609 393.114C534.292 393.927 532.982 393.566 533.299 392.753C534.473 389.952 535.647 387.151 536.822 384.351C537.138 383.538 538.448 383.899 538.132 384.712Z" fill="#E1E5EE"/>
<path d="M542.333 393.521C541.113 395.915 539.939 398.354 538.719 400.748C538.493 401.154 537.951 401.154 537.635 400.883C536.686 400.116 536.235 398.806 535.738 397.767C535.015 396.321 534.292 394.876 533.57 393.43C533.163 392.662 534.337 391.985 534.744 392.753C535.376 394.018 536.054 395.282 536.686 396.547C537.228 397.631 537.725 399.122 538.674 399.89C538.312 399.935 537.951 399.98 537.59 400.025C538.809 397.631 539.984 395.192 541.203 392.798C541.565 392.075 542.739 392.753 542.333 393.521Z" fill="#E1E5EE"/>
<path d="M83.7195 174.4C85.1198 177.065 85.978 179.866 86.3845 182.847C86.52 183.705 85.1649 183.705 85.0294 182.847C84.6681 180.092 83.855 177.517 82.5903 175.078C82.1386 174.31 83.313 173.632 83.7195 174.4Z" fill="#E1E5EE"/>
<path d="M83.9006 175.981C82.5003 178.691 81.1451 181.401 79.7448 184.112C79.3383 184.88 78.1638 184.202 78.5703 183.434C79.9706 180.724 81.3258 178.014 82.7261 175.303C83.1327 174.536 84.3071 175.213 83.9006 175.981Z" fill="#E1E5EE"/>
<path d="M86.2944 183.028C85.1651 185.738 83.81 188.267 82.1838 190.661C81.6869 191.384 80.5125 190.706 81.0094 189.984C82.5904 187.68 83.9455 185.241 84.9844 182.666C85.3006 181.898 86.6106 182.26 86.2944 183.028Z" fill="#E1E5EE"/>
<path d="M80.1513 183.615C80.9644 186.144 81.642 188.719 82.0937 191.384C82.2292 192.242 80.9193 192.604 80.7837 191.745C80.332 189.126 79.6997 186.551 78.8414 183.976C78.5704 183.163 79.8803 182.802 80.1513 183.615Z" fill="#E1E5EE"/>
<path d="M88.9595 393.701C89.5016 395.508 89.9984 397.27 90.5405 399.077C90.7664 399.935 89.5016 400.251 89.2306 399.438C88.6885 397.631 88.1916 395.87 87.6495 394.063C87.3785 393.205 88.6884 392.843 88.9595 393.701Z" fill="#E1E5EE"/>
<path d="M89.0499 394.695C88.2368 396.502 87.3786 398.309 86.5655 400.07C86.2041 400.883 85.0297 400.161 85.3911 399.393C86.2041 397.586 87.0624 395.779 87.8755 394.017C88.2369 393.204 89.4113 393.882 89.0499 394.695Z" fill="#E1E5EE"/>
<path d="M90.1792 399.935C89.7727 402.058 88.7789 403.955 87.3787 405.581C86.7915 406.259 85.8429 405.265 86.4301 404.632C87.6949 403.187 88.5079 401.471 88.8693 399.619C89.05 398.715 90.3599 399.077 90.1792 399.935Z" fill="#E1E5EE"/>
<path d="M86.6107 399.754C87.198 401.651 87.469 403.594 87.4239 405.536C87.3787 406.394 86.0235 406.394 86.0687 405.536C86.1139 403.684 85.888 401.877 85.3007 400.115C85.0297 399.302 86.3397 398.941 86.6107 399.754Z" fill="#E1E5EE"/>
<path d="M555.387 155.383C556.381 157.552 557.329 159.72 558.323 161.888C558.684 162.656 557.51 163.379 557.148 162.565C556.155 160.397 555.206 158.229 554.212 156.061C553.851 155.293 555.025 154.57 555.387 155.383Z" fill="#E1E5EE"/>
<path d="M558.142 163.017C557.103 165.682 556.109 168.302 555.071 170.967C554.754 171.78 553.444 171.419 553.761 170.606C554.799 167.941 555.793 165.321 556.832 162.656C557.148 161.843 558.458 162.204 558.142 163.017Z" fill="#E1E5EE"/>
<path d="M555.387 155.474C553.986 157.913 552.586 160.397 551.186 162.836C550.734 163.604 549.605 162.927 550.011 162.159C551.412 159.72 552.812 157.235 554.212 154.796C554.664 154.028 555.838 154.706 555.387 155.474Z" fill="#E1E5EE"/>
<path d="M550.87 162.249C552.315 164.96 553.58 167.76 554.664 170.606C554.98 171.419 553.67 171.78 553.354 170.967C552.315 168.212 551.096 165.502 549.695 162.927C549.289 162.159 550.463 161.481 550.87 162.249Z" fill="#E1E5EE"/>
<path d="M214.894 197.03C213.99 195.314 212.274 194.139 210.286 194.23C208.66 194.275 207.441 195.404 205.995 195.946C203.466 196.85 202.698 195.223 200.801 194.004C198.226 192.287 195.742 196.127 192.986 196.082C191.405 196.037 190.095 195.269 190.05 193.597C190.411 193.778 190.728 194.004 191.089 194.185C189.689 194.907 188.288 195.63 186.933 196.398C186.165 196.804 185.488 195.63 186.256 195.223C187.656 194.501 189.056 193.778 190.411 193.01C190.863 192.784 191.405 193.055 191.45 193.597C191.586 196.804 197.819 192.242 198.994 192.107C201.659 191.745 202.698 195.043 205.001 194.681C207.441 194.275 208.976 192.513 211.596 192.965C213.584 193.326 215.21 194.546 216.113 196.353C216.43 197.121 215.3 197.798 214.894 197.03Z" fill="#E1E5EE"/>
<path d="M197.594 187.861C195.561 185.602 192.354 188.448 190.05 188.719C187.385 189.035 185.307 186.189 182.733 187.635C180.61 188.855 176.725 191.745 175.189 188.041C174.873 187.228 176.183 186.867 176.499 187.68C177.583 190.3 181.468 186.641 182.778 186.099C184.54 185.331 185.714 185.964 187.295 186.732C189.192 187.635 190.547 187.319 192.354 186.506C193.167 186.144 193.98 185.828 194.883 185.693C196.284 185.512 197.549 185.783 198.542 186.867C199.129 187.545 198.181 188.493 197.594 187.861Z" fill="#E1E5EE"/>
<path d="M234.272 81.3042C233.64 80.1298 232.917 79.8136 232.104 80.3556C231.742 80.4911 231.381 80.6718 231.02 80.8977C230.613 81.0784 230.207 81.3494 229.8 81.4849C229.077 81.7107 228.355 81.8011 227.632 81.6204C225.69 81.0784 224.696 78.6392 222.618 78.6843C220.676 78.7295 219.276 80.5815 217.243 79.6329C216.385 79.2264 215.797 78.5037 214.984 78.052C213.178 77.0582 210.964 77.4196 209.428 78.6843C208.751 79.2264 207.802 78.2778 208.48 77.7358C210.513 76.0645 213.313 75.5676 215.662 76.8775C216.701 77.4647 217.559 78.7295 218.914 78.5488C219.682 78.4585 220.36 77.9164 221.082 77.6454C222.166 77.2389 223.16 77.1034 224.244 77.6003C225.599 78.2326 226.503 79.9943 227.993 80.3105C229.89 80.717 231.155 78.7747 232.917 78.7295C234.588 78.6843 236.53 80.3105 235.401 81.9818C234.95 82.7045 233.775 82.0269 234.272 81.3042Z" fill="#E1E5EE"/>
<path d="M219.276 73.3091C218.734 70.373 213.629 73.2188 211.822 72.9026C210.648 72.7219 209.79 71.9088 208.706 71.5023C206.989 70.8247 205.318 71.0957 203.737 72.0443C202.969 72.496 202.292 71.3216 203.06 70.8699C204.415 70.0568 205.86 69.6503 207.396 69.7858C208.073 69.831 208.706 70.0117 209.293 70.2375C211.1 71.0054 211.822 71.8636 214.081 71.3216C216.249 70.7796 219.953 69.6955 220.54 72.9477C220.766 73.806 219.456 74.1673 219.276 73.3091Z" fill="#E1E5EE"/>
<path d="M561.259 236.554C560.672 233.709 556.742 237.593 555.974 238.09C555.116 238.677 554.167 239.084 553.128 238.858C551.773 238.632 550.734 237.503 549.334 237.187C547.076 236.69 544.817 237.413 543.191 239.039C542.559 239.671 541.61 238.677 542.242 238.09C543.643 236.69 545.359 235.832 547.347 235.696C548.34 235.606 549.334 235.741 550.283 236.058C551.773 236.554 552.948 238 554.754 237.277C556.652 236.509 557.374 234.567 559.542 234.341C560.943 234.206 562.253 234.748 562.524 236.193C562.75 237.051 561.44 237.413 561.259 236.554Z" fill="#E1E5EE"/>
<path d="M546.217 233.302C545.223 231.947 540.661 234.657 539.351 234.973C537.228 235.47 535.06 235.47 532.892 235.199C532.034 235.064 532.395 233.754 533.253 233.889C537.003 234.386 539.893 233.392 543.281 232.037C544.817 231.45 546.353 231.224 547.392 232.624C547.889 233.302 546.714 233.98 546.217 233.302Z" fill="#E1E5EE"/>
<path d="M436.092 327.979C435.369 326.849 434.24 326.127 432.84 326.127C431.665 326.127 430.943 326.849 429.904 327.166C428.865 327.527 428.007 327.301 427.103 326.714C425.342 325.54 424.483 324.094 422.089 324.184C419.921 324.23 417.843 325.269 415.946 326.217C415.178 326.624 414.501 325.449 415.269 325.043C418.837 323.236 423.174 321.519 426.606 324.455C427.374 325.088 427.465 325.269 428.639 325.494C429.949 325.765 429.814 325.585 430.807 325.178C431.665 324.817 432.479 324.681 433.427 324.772C435.098 324.952 436.408 325.901 437.267 327.256C437.718 328.024 436.544 328.701 436.092 327.979Z" fill="#E1E5EE"/>
<path d="M421.05 330.599C418.927 328.747 414.907 332.631 412.287 332.27C410.706 332.044 409.984 330.87 408.945 329.786C406.957 327.663 403.976 327.346 401.537 328.927C400.814 329.379 400.137 328.25 400.859 327.753C402.621 326.624 404.699 326.262 406.731 326.85C407.635 327.121 408.448 327.527 409.171 328.114C410.255 329.018 410.932 330.644 412.468 330.915C415.765 331.502 418.882 326.895 421.999 329.65C422.631 330.237 421.683 331.186 421.05 330.599Z" fill="#E1E5EE"/>
<path d="M482.663 40.8769C482.302 39.3863 481.443 38.2119 479.998 37.5795C478.733 37.0375 477.694 37.3988 476.384 37.3537C474.939 37.2633 473.855 36.5406 472.997 35.4565C471.687 33.8304 470.828 32.1591 468.976 31.075C466.853 29.8554 464.414 29.6295 462.065 30.3523C461.207 30.6233 460.891 29.3134 461.704 29.0423C466.04 27.7324 470.332 29.4037 472.951 33.0625C473.99 34.5079 474.758 35.9534 476.746 35.9985C477.965 36.0437 479.004 35.7727 480.179 36.1792C482.166 36.8568 483.521 38.5281 483.973 40.5156C484.199 41.3738 482.889 41.7352 482.663 40.8769Z" fill="#E1E5EE"/>
<path d="M476.294 46.0715C478.236 40.9221 468.931 41.1931 466.13 40.1994C462.652 38.9798 459.671 36.8116 456.735 34.6435C456.057 34.1466 456.735 32.9722 457.413 33.469C459.4 34.9597 461.433 36.4051 463.601 37.5795C466.311 39.025 468.886 39.4767 471.822 39.9284C474.939 40.4253 479.004 42.5934 477.558 46.3877C477.287 47.2008 475.978 46.8846 476.294 46.0715Z" fill="#E1E5EE"/>
<path d="M296.155 305.032C292.722 296.043 286.895 290.171 280.888 284.073C272.983 276.078 258.302 261.217 243.351 263.566C230.613 265.554 232.013 277.795 214.532 286.693C198.045 295.14 191.722 286.784 175.28 295.863C172.84 297.218 155.631 307.02 151.701 325.54C150.075 333.219 150.481 343.743 153.869 344.737C157.708 345.866 159.018 323.733 174.376 315.06C186.12 308.42 202.291 311.627 203.601 316.37C205.002 321.384 188.786 324.681 179.616 342.117C175.596 349.706 174.738 356.617 173.518 366.102C172.389 375.046 171.124 393.385 175.28 394.469C178.713 395.373 180.565 383.132 193.167 373.104C199.807 367.819 206.899 365.651 221.082 361.314C233.865 357.43 240.325 355.533 243.803 358.695C248.952 363.392 244.977 375.317 244.255 377.44C239.195 392.617 226.277 398.941 227.225 400.567C228.49 402.6 252.069 396.728 271.311 377.892C287.753 361.766 306.138 331.096 296.155 305.032Z" fill="#007BFF"/>
<path d="M148.674 357.385C148.855 358.649 149.804 365.696 145.648 370.213C141.041 375.182 135.44 371.387 129.793 376.311C124.599 380.828 125.276 387.603 123.695 387.468C121.889 387.332 119.133 378.163 123.018 372.607C124.237 370.845 127.219 369.264 133.136 366.193C139.189 363.031 140.002 363.166 141.583 361.45C145.512 357.204 144.925 351.648 146.326 351.648C147.41 351.648 148.358 354.991 148.674 357.385Z" fill="#007BFF"/>
<path d="M187.521 410.414C190.05 414.209 189.779 418.274 189.553 422.565C189.282 426.947 189.102 430.515 186.527 433.722C183.591 437.381 178.712 438.917 178.08 438.104C177.583 437.471 179.796 435.755 181.784 432.006C182.01 431.554 184.946 425.998 184.81 419.493C184.675 411.363 179.887 406.53 181.106 405.671C182.01 404.994 185.488 407.343 187.521 410.414Z" fill="#007BFF"/>
<path d="M169.407 335.522C161.819 340.536 165.974 352.145 161.006 358.92C160.509 359.598 159.334 358.92 159.831 358.243C164.981 351.196 160.599 339.723 168.73 334.348C169.453 333.851 170.13 335.025 169.407 335.522Z" fill="#E1E5EE"/>
<path d="M172.118 302.819C163.987 309.052 158.341 317.951 156.082 327.934C155.902 328.792 154.592 328.43 154.772 327.572C157.121 317.228 162.993 308.104 171.395 301.69C172.163 301.102 172.84 302.277 172.118 302.819Z" fill="#E1E5EE"/>
<path d="M198.316 327.843C191.812 333.173 186.708 339.994 183.546 347.809C183.229 348.622 181.919 348.26 182.236 347.447C185.533 339.407 190.637 332.406 197.368 326.895C198 326.353 198.994 327.301 198.316 327.843Z" fill="#E1E5EE"/>
<path d="M180.384 355.262C179.164 358.514 178.351 361.811 178.035 365.244C177.945 366.102 176.589 366.102 176.68 365.244C177.041 361.676 177.854 358.243 179.119 354.9C179.345 354.087 180.655 354.449 180.384 355.262Z" fill="#E1E5EE"/>
<path d="M249.901 362.76C251.03 369.581 249.72 376.401 246.016 382.273C245.565 382.996 244.39 382.319 244.842 381.596C248.32 376.085 249.675 369.581 248.591 363.121C248.455 362.263 249.765 361.902 249.901 362.76Z" fill="#E1E5EE"/>
<path d="M244.209 385.977C242.583 388.959 240.505 391.624 238.021 393.927C237.388 394.514 236.44 393.566 237.072 392.979C239.466 390.72 241.454 388.145 243.035 385.3C243.441 384.532 244.616 385.209 244.209 385.977Z" fill="#E1E5EE"/>
<path d="M296.064 317.138C296.426 321.429 296.019 325.675 294.8 329.831C294.574 330.689 293.264 330.328 293.49 329.469C294.664 325.404 295.071 321.339 294.709 317.138C294.619 316.28 295.974 316.28 296.064 317.138Z" fill="#E1E5EE"/>
<path d="M293.445 334.438C292.722 337.961 291.412 341.214 289.515 344.285C289.063 345.008 287.889 344.33 288.341 343.608C290.147 340.626 291.412 337.51 292.135 334.077C292.316 333.264 293.626 333.625 293.445 334.438Z" fill="#E1E5EE"/>
<path d="M411.384 52.0792C412.649 55.5122 414.185 60.2099 415.676 65.9013C417.211 71.8186 420.825 87.4023 420.464 107.91C420.102 127.694 416.218 142.239 412.649 155.203C407.093 175.439 400.318 189.984 396.297 198.431C396.297 198.431 383.514 225.488 362.33 254.487C358.58 259.591 353.792 266.05 353.792 266.05C350.314 270.703 347.333 274.588 345.255 277.388C343.584 279.285 341.461 281.408 338.705 283.441C333.556 287.28 328.452 289.223 324.883 290.217C319.011 285.203 313.139 280.144 307.267 275.13C304.602 277.659 301.892 280.144 299.227 282.673C295.523 278.879 292.225 275.852 289.651 273.639C278.448 263.927 269.189 258.959 267.02 257.784C265.168 256.791 263.587 256.023 262.503 255.526C264.175 252.183 265.846 248.841 267.517 245.453C264.807 243.104 261.69 240.62 258.212 238.18C253.515 234.883 248.997 232.218 244.887 230.14C244.932 226.346 245.429 220.609 247.913 214.285C249.765 209.543 251.979 206.335 252.927 204.98C263.362 189.939 232.601 231.405 272.802 174.039C288.386 151.815 296.155 140.658 299.724 136.051C310.881 121.461 319.644 111.478 325.877 104.386C337.802 90.7901 343.177 85.731 347.514 82.0271C353.431 76.8777 359.981 71.3217 369.873 66.1723C376.106 62.9652 381.256 61.2036 388.754 58.6289C398.014 55.467 405.828 53.3892 411.384 52.0792Z" fill="white"/>
<path d="M412.785 52.8923C422.587 83.1111 422.587 115.724 415.54 146.53C413.778 154.254 411.565 161.888 408.945 169.341C407.635 173.135 406.054 176.839 404.654 180.588C404.157 181.898 404.067 183.208 403.48 184.518C402.621 186.551 401.718 188.584 400.815 190.616C399.143 194.411 397.382 198.16 395.53 201.909C393.678 205.613 391.419 209.136 389.748 212.885C389.115 214.285 388.573 215.776 387.851 217.131C386.902 218.848 385.502 220.158 384.508 221.829C382.43 225.307 380.443 228.875 378.275 232.308C368.382 248.253 357.135 263.295 345.617 278.066C345.074 278.743 344.126 277.795 344.668 277.117C354.831 264.063 364.769 250.828 373.712 236.961C375.926 233.528 378.049 230.095 380.127 226.572C381.12 224.9 382.114 223.184 383.063 221.467C384.011 219.796 385.276 218.622 386.27 216.996C387.083 215.641 387.67 214.195 388.257 212.75C389.07 210.807 390.154 209.046 391.148 207.194C393.045 203.716 394.807 200.192 396.478 196.624C398.24 192.875 399.911 189.08 401.582 185.286C402.305 183.615 402.576 181.853 403.254 180.137C403.976 178.285 404.744 176.433 405.467 174.536C408.222 167.263 410.616 159.855 412.604 152.312C416.579 137.044 418.883 121.37 419.108 105.561C419.334 87.8088 416.895 70.057 411.384 53.1181C411.249 52.4406 412.559 52.0792 412.785 52.8923Z" fill="#271F30"/>
<path d="M412.152 52.8922C404.608 53.4794 396.93 56.0993 389.838 58.5837C382.836 61.068 375.925 63.7782 369.511 67.4822C356.728 74.8901 345.436 84.6017 335.137 95.1715C324.522 106.058 314.855 118.028 305.505 129.998C296.2 141.923 287.301 154.254 278.719 166.721C269.233 180.588 260.109 194.727 251.165 209C250.714 209.723 249.539 209.046 249.991 208.323C266.388 182.26 283.327 156.513 302.162 132.121C320.366 108.497 339.88 84.3758 365.446 68.3404C372.402 63.9589 379.855 60.797 387.534 57.9513C395.303 55.1056 403.795 52.1695 412.107 51.4919C413.01 51.4919 413.01 52.8471 412.152 52.8922Z" fill="#271F30"/>
<path d="M343.674 277.659C322.625 256.203 298.956 237.367 273.344 221.648C266.117 217.221 258.8 213.066 251.301 209.181C250.533 208.775 251.211 207.6 251.979 208.007C278.584 221.919 303.518 239.039 325.968 258.959C332.382 264.65 338.615 270.567 344.623 276.711C345.255 277.343 344.307 278.292 343.674 277.659Z" fill="#271F30"/>
<path d="M344.984 278.698C339.609 284.706 332.608 288.952 324.793 290.849C323.935 291.075 323.573 289.765 324.432 289.539C332.065 287.642 338.796 283.577 344.036 277.704C344.623 277.072 345.571 278.066 344.984 278.698Z" fill="#271F30"/>
<path d="M251.527 209.542C248.004 215.731 245.971 222.551 245.519 229.643C245.474 230.501 244.119 230.501 244.164 229.643C244.616 222.28 246.739 215.279 250.353 208.865C250.759 208.097 251.934 208.775 251.527 209.542Z" fill="#271F30"/>
<path d="M323.98 290.487C299.543 268.173 273.073 248.208 244.842 230.908C244.119 230.456 244.797 229.282 245.519 229.734C273.796 247.079 300.401 267.134 324.929 289.539C325.561 290.126 324.612 291.075 323.98 290.487Z" fill="#271F30"/>
<path d="M306.951 275.943C304.467 278.382 301.982 280.821 299.498 283.305C299.227 283.576 298.775 283.576 298.549 283.305C291.232 275.536 283.011 268.67 274.022 262.934C271.854 261.533 269.641 260.223 267.382 258.959C265.937 258.146 263.181 257.378 262.323 255.842C261.42 254.306 262.775 252.228 263.497 250.918C264.762 248.615 266.253 246.492 267.879 244.504C268.421 243.827 269.37 244.775 268.828 245.453C267.247 247.395 265.846 249.428 264.672 251.596C264.401 252.048 263.814 252.816 263.768 253.358C263.949 254.171 264.13 254.939 264.311 255.752C264.536 255.887 264.762 255.977 264.988 256.113C265.891 256.791 267.066 257.197 268.06 257.784C271.989 259.998 275.829 262.392 279.533 264.966C286.76 270.071 293.445 275.898 299.498 282.312C299.182 282.312 298.866 282.312 298.549 282.312C301.034 279.872 303.518 277.433 306.003 274.949C306.635 274.362 307.584 275.31 306.951 275.943Z" fill="#271F30"/>
<path d="M409.578 164.598C398.466 151.499 385.457 140.161 372.132 129.365C358.761 118.57 344.758 108.452 329.084 101.27C328.271 100.908 328.994 99.7337 329.762 100.095C345.3 107.187 359.168 117.215 372.448 127.875C385.999 138.806 399.234 150.324 410.526 163.604C411.113 164.327 410.165 165.276 409.578 164.598Z" fill="#271F30"/>
<path d="M328.813 107.593C330.304 107.684 330.936 105.199 329.265 105.064C328.678 105.019 328 105.29 327.774 105.877C327.458 106.735 328.271 107.639 329.129 107.639C329.762 107.639 329.807 108.677 329.129 108.677C327.729 108.677 326.51 107.368 326.735 105.967C326.916 104.793 328.136 104.07 329.265 104.115C330.485 104.206 331.433 105.199 331.298 106.419C331.162 107.639 330.078 108.768 328.813 108.677C328.136 108.587 328.136 107.548 328.813 107.593Z" fill="#271F30"/>
<path d="M259.838 207.51C259.793 207.51 259.793 207.51 259.748 207.465C259.883 207.465 260.019 207.419 260.155 207.419C259.658 207.645 259.929 206.697 259.974 206.561C259.974 206.426 259.929 206.245 259.883 206.11C259.748 205.839 259.522 205.568 259.251 205.432C258.664 205.161 258.031 205.613 257.851 206.2C257.489 207.374 259.206 207.962 259.658 206.923C259.929 206.335 260.787 206.832 260.516 207.419C259.974 208.684 258.122 208.775 257.218 207.826C256.179 206.697 256.947 204.8 258.348 204.393C259.838 203.987 261.284 205.568 260.922 207.013C260.787 207.6 260.019 208.323 259.432 207.736C258.98 207.284 259.432 206.29 260.109 206.561C260.697 206.787 260.426 207.736 259.838 207.51Z" fill="#271F30"/>
<path opacity="0.15" d="M411.385 52.3501C404.248 56.9575 394.581 63.733 384.012 72.8122C377.462 78.4585 360.478 93.5905 339.248 122.951C316.211 154.796 304.693 170.696 302.389 188.448C301.215 197.708 299.589 224.087 322.851 256.519C313.23 249.202 303.564 241.839 293.942 234.522C289.741 241.433 285.586 248.344 281.385 255.255C285.902 258.597 290.419 261.895 294.936 265.237C292.723 267.902 290.509 270.522 288.296 273.187C285.586 270.567 282.334 267.767 278.584 265.011C272.803 260.765 267.247 257.739 262.459 255.526C264.265 252.048 266.027 248.524 267.834 245.046C260.065 239.942 252.295 234.793 244.526 229.688C244.933 225.849 245.881 220.293 248.366 214.059C251.256 206.742 254.915 201.863 256.316 199.966C266.434 186.28 261.51 189.577 282.695 159.81C297.917 138.399 306.319 126.429 319.78 110.936C328.407 100.998 334.144 94.4487 343.313 86.3633C353.07 77.7358 364.905 67.4821 382.973 59.9839C394.491 55.2862 404.609 53.2987 411.385 52.3501Z" fill="#007BFF"/>
<path opacity="0.11" d="M266.343 183.57C266.749 186.46 267.563 190.887 269.595 195.901C274.293 207.51 281.52 212.569 296.607 227.836C303.744 235.064 314.359 245.769 313.365 246.943C312.417 248.073 300.808 239.129 280.526 225.759C268.647 217.899 258.664 211.801 252.114 207.826C256.857 199.741 261.6 191.655 266.343 183.57Z" fill="#007BFF"/>
<path opacity="0.08" d="M251.166 209.181C251.798 209.317 250.262 214.24 252.114 220.383C253.469 224.9 255.773 227.068 261.419 233.889C263.858 236.825 267.427 241.252 271.673 246.943C262.82 240.891 253.966 234.838 245.113 228.785C249.133 212.795 250.624 209.091 251.166 209.181Z" fill="#271F30" fill-opacity="0.65"/>
<path d="M327.458 357.023C327.323 358.333 326.826 359.372 326.058 360.637C322.806 365.877 317.431 369.084 313.546 370.936C315.082 375.769 316.934 382.725 318.289 391.217C319.554 399.393 321.044 408.924 319.102 409.556C318.424 409.782 316.437 409.15 297.962 372.562C295.387 367.457 293.264 363.211 291.864 360.321C301.711 355.894 311.513 351.422 321.36 346.995C322.309 347.718 327.955 351.829 327.458 357.023Z" fill="#E1E5EE" stroke="#E1E5EE" stroke-width="2" stroke-miterlimit="10"/>
<path d="M348.056 257.107C356.367 262.888 361.742 268.49 366.53 273.549C368.473 275.581 377.778 285.474 387.58 301.012C391.916 307.878 395.123 313.931 397.336 318.493C397.065 320.345 396.433 323.01 394.762 325.675C392.91 328.656 390.832 329.966 387.58 332.857C383.605 336.38 382.159 338.458 379.856 340.807C375.384 345.414 369.105 348.893 356.728 355.713C341.19 364.25 332.833 367.367 330.259 368.316C327.097 369.445 324.432 370.303 322.535 370.89C321.631 366.69 320.547 362.218 319.192 357.52C317.972 353.319 316.662 349.389 315.353 345.731C324.974 338.684 334.866 330.779 344.894 321.836C348.372 318.764 351.715 315.647 354.922 312.576C351.669 308.646 347.107 303.497 341.325 297.941C339.654 296.314 336.131 292.972 331.84 289.449C326.419 285.067 318.243 279.195 306.951 273.775C305.009 260.811 307.312 248.705 314.404 244.775C323.257 239.897 336.718 249.247 348.056 257.107Z" fill="white"/>
<path d="M357.18 263.837C373.17 277.388 386.405 294.146 395.801 312.892C396.749 314.834 398.104 317.002 398.285 319.171C398.466 321.474 397.065 323.236 395.801 324.998C392.774 329.108 389.341 332.947 385.682 336.516C377.913 343.969 368.969 350.112 359.574 355.307C348.011 361.721 335.769 366.825 323.573 371.884C322.76 372.2 322.399 370.89 323.212 370.574C343.177 362.263 363.549 353.771 380.217 339.633C383.966 336.426 387.534 332.993 390.742 329.244C392.413 327.256 394.084 325.223 395.53 323.1C396.433 321.79 397.111 320.571 396.885 318.9C396.659 317.273 395.71 315.738 394.988 314.247C390.651 305.439 385.457 297.082 379.494 289.268C372.673 280.279 364.859 272.103 356.232 264.831C355.554 264.244 356.503 263.295 357.18 263.837Z" fill="#271F30"/>
<path d="M318.876 279.421C334.369 289.449 347.92 302.141 358.897 316.957C359.393 317.68 358.219 318.357 357.722 317.635C346.881 303 333.466 290.442 318.198 280.55C317.475 280.143 318.153 278.969 318.876 279.421Z" fill="#271F30"/>
<path d="M355.689 313.253C342.997 324.726 329.942 335.748 316.482 346.273C315.804 346.815 314.856 345.866 315.533 345.324C328.994 334.799 342.093 323.778 354.741 312.305C355.373 311.717 356.322 312.666 355.689 313.253Z" fill="#271F30"/>
<path d="M316.436 346.092C319.282 354.132 321.495 362.353 323.122 370.71C323.302 371.568 321.992 371.929 321.812 371.071C320.186 362.715 317.927 354.494 315.127 346.453C314.856 345.64 316.165 345.279 316.436 346.092Z" fill="#271F30"/>
<path opacity="0.11" d="M330.575 274.362C336.808 274.904 341.506 279.466 356.006 299.612C361.562 307.336 366.214 314.066 369.783 319.396C364.633 323.01 360.568 325.991 357.993 327.934C343.584 338.729 337.531 344.782 325.29 351.377C322.625 352.822 320.412 353.861 319.102 354.448C318.063 351.603 317.024 348.757 316.03 345.911C319.463 342.93 322.896 339.994 326.374 337.013C335.95 328.882 345.436 321.022 354.877 313.389C350.947 307.878 347.243 303.722 344.533 300.877C336.537 292.52 328.587 286.874 322.399 282.537C320.276 281.047 318.469 279.872 317.295 279.104C323.122 274.633 327.684 274.091 330.575 274.362Z" fill="#271F30" fill-opacity="0.65"/>
<path opacity="0.08" d="M328.768 286.151C332.653 287.055 337.847 288.816 343.132 292.34C356.051 300.967 360.387 314.157 361.652 318.674C354.696 324.094 347.514 329.56 340.06 335.025C332.833 340.355 325.651 345.415 318.65 350.293C317.611 348.802 316.572 347.267 315.578 345.776C325.2 338.775 335.182 330.689 345.165 321.429C348.327 318.538 351.353 315.602 354.244 312.711C352.663 310.633 350.947 308.51 349.14 306.342C342.364 298.302 335.408 291.662 328.768 286.151Z" fill="#271F30" fill-opacity="0.65"/>
<path d="M243.261 342.253C238.473 346.77 233.639 351.332 228.851 355.849C230.116 384.667 227.722 391.443 225.193 391.94C221.263 392.708 214.532 379.111 211.596 368.406C209.383 360.275 209.157 353.139 209.383 348.305C216.881 341.62 224.38 334.935 231.878 328.205C235.672 332.902 239.466 337.6 243.261 342.253Z" fill="#E1E5EE" stroke="#E1E5EE" stroke-width="2" stroke-miterlimit="10"/>
<path d="M337.26 260.991C336.853 268.49 331.614 273.052 331.614 273.052C328.361 275.897 324.703 276.665 322.896 276.891C321.45 277.478 320.005 278.111 318.514 278.698C316.256 281.95 312.913 286.558 308.487 291.797C302.614 298.844 294.71 307.246 275.377 323.145C265.846 330.96 253.56 340.581 238.699 351.151C236.576 350.112 234.046 348.576 231.516 346.318C225.961 341.394 223.386 335.658 222.211 332.405C224.831 329.876 228.716 326.082 233.233 321.384C253.289 300.651 266.659 282.899 276.867 269.257C283.598 260.269 292.225 248.298 301.756 233.844C323.573 239.806 337.802 251.37 337.26 260.991Z" fill="white"/>
<path d="M330.258 274.768C326.645 276.033 323.076 277.253 319.463 278.517C318.65 278.788 318.288 277.478 319.101 277.207C322.715 275.943 326.284 274.723 329.897 273.458C330.71 273.187 331.072 274.497 330.258 274.768Z" fill="#271F30"/>
<path d="M320.953 277.162C303.969 300.515 281.972 319.396 259.161 336.877C252.611 341.891 245.971 346.86 239.331 351.783C238.608 352.325 237.976 351.106 238.653 350.609C261.509 333.67 284.501 316.505 303.924 295.637C309.571 289.584 314.855 283.17 319.734 276.485C320.276 275.807 321.45 276.485 320.953 277.162Z" fill="#271F30"/>
<path d="M294.303 245.679C278.313 270.206 260.29 293.333 240.415 314.834C234.678 321.068 228.761 327.121 222.754 333.038C222.121 333.67 221.173 332.676 221.805 332.089C242.719 311.582 261.871 289.313 279.036 265.599C283.914 258.868 288.612 252.003 293.174 245.001C293.626 244.278 294.8 244.956 294.303 245.679Z" fill="#271F30"/>
<path d="M223.521 332.179C226.141 339.949 231.2 347.176 238.834 350.609C239.647 350.97 238.924 352.145 238.157 351.783C230.207 348.215 224.967 340.626 222.257 332.541C221.94 331.728 223.25 331.366 223.521 332.179Z" fill="#271F30"/>
<path opacity="0.09" d="M294.258 244.956C296.833 241.478 299.001 238.632 300.446 236.78C301.892 239.445 303.879 243.917 304.06 249.473C304.466 262.03 295.252 267.405 268.827 296.676C257.309 309.414 251.211 317.093 236.35 332.27C232.872 335.793 229.936 338.729 227.813 340.807C226.187 337.961 224.56 335.116 222.889 332.27C237.208 317.906 248.546 304.942 257.038 294.688C265.214 284.796 272.531 275.943 280.075 264.921C282.017 262.166 286.94 254.803 294.258 244.956Z" fill="#271F30" fill-opacity="0.65"/>
<path opacity="0.09" d="M286.263 257.649C285.63 260.766 284.32 266.05 281.746 272.194C274.293 289.72 263.271 297.128 243.441 319.035C239.647 323.236 233.775 329.876 226.909 338.458C225.328 336.2 223.747 333.986 222.166 331.728C223.612 330.373 225.915 328.25 228.716 325.54C233.865 320.571 247.823 306.704 274.473 272.871C277.364 269.258 281.429 264.018 286.263 257.649Z" fill="#271F30" fill-opacity="0.65"/>
<path d="M432.885 217.718C433.789 218.08 435.144 218.848 439.164 225.307C443.5 232.263 446.436 237.006 448.604 244.504C450.502 251.189 450.953 257.287 450.818 262.256C450.502 263.702 450.276 265.825 450.998 268.173C451.947 271.155 453.663 271.877 456.916 275.943C458.226 277.569 460.394 280.324 462.11 284.073C464.007 288.274 463.059 288.816 464.866 292.927C467.034 297.85 470.241 301.238 470.783 301.78C473.764 304.897 475.21 304.987 476.52 307.697C478.01 310.769 477.559 313.66 477.423 314.518C477.333 315.15 476.384 320.661 473.177 321.339C472.319 321.519 470.964 321.429 470.422 320.616C469.563 319.351 471.551 317.59 471.912 314.518C472.228 311.717 471.009 309.459 470.241 308.059C467.937 303.768 465.272 304.4 462.833 300.831C460.484 297.308 462.698 296.224 460.439 289.584C459.174 285.88 457.909 282.176 454.522 279.421C452.986 278.156 451.495 277.478 450.095 275.355C448.875 273.503 448.424 271.652 448.243 270.387C445.759 274.362 443.139 276.936 441.242 278.517C438.712 280.595 435.821 283.034 433.382 282.131C432.072 281.634 430.898 280.143 431.124 279.105C431.259 278.517 431.801 278.337 433.201 277.072C433.201 277.072 433.743 276.575 434.963 275.265C435.776 274.407 436.95 272.826 437.989 269.845C437.583 269.393 436.544 268.399 435.144 268.309C433.608 268.264 432.433 269.348 431.259 270.522C429.046 272.69 429.136 274 427.736 275.31C426.652 276.349 424.664 277.433 420.734 277.162C420.915 276.665 421.231 275.852 421.638 274.949C423.038 271.923 423.761 271.606 423.851 270.342C423.896 269.348 423.49 269.077 421.638 265.915C420.057 263.205 419.289 261.85 419.244 261.127C419.018 258.462 421.322 257.558 421.818 254.487C422.27 251.912 421.141 249.834 420.328 248.208C415.63 238.677 412.649 232.624 413.507 228.062C414.817 220.925 426.2 214.918 432.885 217.718Z" fill="#271F30"/>
<path d="M434.963 219.345C441.513 226.03 445.713 234.522 448.514 243.375C451.224 252.003 453.257 261.85 448.966 270.296C448.559 271.064 447.385 270.387 447.791 269.619C452.037 261.308 449.733 251.461 446.978 243.014C444.268 234.612 440.248 226.662 434.014 220.293C433.427 219.661 434.376 218.712 434.963 219.345Z" fill="#271F30"/>
<path d="M441.738 258.371C441.196 258.1 440.654 257.875 440.112 257.603C439.706 257.829 439.299 258.1 438.893 258.326C438.396 258.778 437.944 259.365 437.628 259.952C436.995 261.036 436.679 262.346 436.77 263.611C436.95 266.05 438.712 267.947 439.164 270.296C439.435 271.742 438.486 272.781 437.673 273.865C436.273 275.717 434.647 277.433 432.885 278.969C432.253 279.556 431.259 278.608 431.936 278.02C433.066 276.982 434.195 275.943 435.189 274.768C436.815 272.916 438.26 271.335 437.131 268.761C436.137 266.502 435.098 264.379 435.55 261.804C435.911 259.817 437.041 257.784 438.802 256.7C440.293 255.797 442.1 255.977 442.913 257.649C443.319 258.462 442.145 259.139 441.738 258.371Z" fill="#271F30"/>
<path d="M448.875 270.477C446.255 274.678 442.642 278.156 438.26 280.459C436.95 281.137 434.466 282.718 432.885 282.04C431.394 281.408 431.665 279.601 432.072 278.382C432.343 277.569 433.653 277.93 433.382 278.743C432.343 282.04 436.724 279.737 437.583 279.285C438.983 278.562 440.293 277.704 441.558 276.71C444.042 274.768 446.075 272.419 447.746 269.754C448.153 269.077 449.327 269.754 448.875 270.477Z" fill="#271F30"/>
<path d="M417.753 229.011C420.418 237.955 422.089 247.169 422.857 256.474C422.902 256.745 422.631 257.061 422.36 257.107C419.515 257.875 419.921 261.398 420.96 263.385C421.999 265.282 423.625 266.863 424.438 268.896C425.884 272.555 421.592 273.729 421.683 276.936C421.457 276.711 421.231 276.485 421.005 276.259C425.071 276.033 428.504 273.865 430.536 270.342C431.982 267.812 433.653 267.27 436.544 267.451C437.402 267.496 437.402 268.851 436.544 268.806C435.46 268.761 434.15 268.625 433.156 269.167C432.298 269.664 432.027 270.522 431.575 271.29C430.807 272.6 429.813 273.774 428.639 274.723C426.426 276.53 423.851 277.433 421.05 277.614C420.689 277.614 420.373 277.298 420.373 276.936C420.328 275.039 421.593 273.91 422.631 272.465C424.8 269.438 421.231 266.638 419.831 264.063C418.295 261.262 418.34 256.745 422.044 255.797C421.864 256.023 421.728 256.248 421.547 256.429C420.825 247.214 419.108 238.18 416.488 229.327C416.217 228.559 417.527 228.198 417.753 229.011Z" fill="#271F30"/>
<path d="M451.269 262.662C450.953 265.373 451.315 268.038 452.625 270.477C453.844 272.781 455.832 274.452 457.774 276.214C461.207 279.421 462.788 282.944 463.872 287.461C465.046 292.249 466.447 296.088 469.925 299.702C472.545 302.367 475.616 304.851 477.242 308.33C478.823 311.717 478.597 315.647 476.565 318.809C475.39 320.661 471.37 324.365 469.834 320.842C469.202 319.396 469.925 317.589 470.422 316.189C470.873 314.97 471.46 313.75 471.46 312.395C471.46 310.498 470.376 308.872 469.112 307.562C466.04 304.355 462.11 302.548 460.755 297.986C459.987 295.411 460.529 292.836 460.349 290.216C460.123 286.964 458.587 284.209 456.238 281.995C452.67 278.608 447.927 275.807 447.927 270.296C447.927 269.438 449.282 269.438 449.282 270.296C449.327 275.581 454.476 278.201 457.729 281.544C460.258 284.118 461.704 287.371 461.749 290.984C461.794 293.378 461.388 295.637 462.201 297.94C463.104 300.56 465.001 302.322 467.079 304.038C469.744 306.161 472.816 308.646 472.816 312.395C472.816 314.202 471.912 315.828 471.37 317.544C471.235 317.996 470.738 319.216 470.964 319.577C471.415 319.622 471.912 319.712 472.364 319.758C473.177 320.254 473.809 320.164 474.261 319.487C475.255 318.854 476.113 316.957 476.474 315.873C477.92 311.627 475.932 307.833 473.087 304.761C470.693 302.141 467.892 299.928 465.905 296.947C463.782 293.785 463.149 290.036 462.246 286.422C461.568 283.802 460.665 281.273 458.858 279.195C457.277 277.343 455.29 275.942 453.663 274.136C450.773 270.974 449.463 266.863 449.959 262.662C450.005 261.804 451.36 261.804 451.269 262.662Z" fill="#271F30"/>
<path d="M480.585 207.645C481.534 208.187 483.295 209.136 483.657 211.123C484.108 213.337 482.527 215.144 482.301 215.369C482.572 215.686 483.386 216.634 483.476 218.08C483.566 220.474 481.443 221.874 481.353 221.964C481.443 222.055 482.753 223.41 482.301 225.262C481.94 226.843 480.54 227.52 480.359 227.565C480.449 227.836 480.766 229.011 480.178 230.095C479.275 231.721 477.107 231.631 476.881 231.631C475.345 231.54 473.9 230.501 473.222 228.92C472.364 229.417 470.106 230.592 467.034 230.276C464.956 230.05 463.42 229.237 462.607 228.74C460.981 231.585 458.452 235.425 454.702 239.355C451.405 242.788 445.262 249.247 436.138 251.912C424.755 255.255 414.682 250.918 408.9 248.434C393.361 241.749 385.637 229.463 382.792 224.855C378.003 216.996 376.332 210.265 374.887 204.167C372.538 194.501 373.351 190.706 374.119 188.493C374.571 187.138 377.236 179.369 383.379 178.465C388.393 177.697 392.548 181.989 393.045 182.531C394.762 184.337 395.665 186.732 397.472 191.429C398.375 193.823 398.962 195.63 399.233 196.443C402.17 205.974 403.66 210.717 404.067 211.711C405.151 214.421 407.725 220.609 413.914 225.442C419.831 230.05 426.019 231.043 428.775 231.45C432.93 232.037 438.035 232.76 443.455 230.095C449.508 227.114 452.218 221.693 452.941 220.248C455.109 215.776 455.516 210.807 455.832 207.284C456.238 202.767 455.922 199.244 458.542 196.443C459.039 195.946 460.213 194.681 461.433 194.907C463.194 195.269 464.188 198.656 465.092 201.864C465.86 204.574 465.634 204.89 466.266 205.522C467.576 206.832 469.247 206.155 474.984 206.471C478.326 206.697 479.501 207.058 480.585 207.645Z" fill="white"/>
<path d="M471.235 205.703C476.113 204.8 484.695 206.064 484.018 212.749C483.431 218.757 476.294 219.796 472.003 217.176C471.28 216.724 471.957 215.55 472.68 216.002C476.249 218.17 482.708 217.583 482.708 212.162C482.708 206.923 475.345 206.335 471.596 207.013C470.738 207.194 470.376 205.884 471.235 205.703Z" fill="#271F30"/>
<path d="M482.843 214.963C487.722 220.925 475.978 228.424 472.499 220.925C472.138 220.157 473.313 219.435 473.674 220.248C476.384 226.03 485.418 220.248 481.85 215.911C481.308 215.279 482.256 214.285 482.843 214.963Z" fill="#271F30"/>
<path d="M482.572 221.016C483.611 223.364 482.889 226.346 480.494 227.565C478.146 228.785 475.21 227.656 473.99 225.397C473.583 224.629 474.758 223.952 475.164 224.72C476.068 226.301 478.1 227.204 479.817 226.391C481.533 225.578 482.166 223.364 481.398 221.693C481.037 220.925 482.211 220.248 482.572 221.016Z" fill="#271F30"/>
<path d="M481.488 227.068C481.669 229.462 480.269 231.631 477.83 232.128C475.571 232.579 473.493 231.089 472.725 229.056C472.409 228.243 473.719 227.882 474.035 228.695C474.622 230.23 476.249 231.224 477.875 230.727C479.546 230.23 480.224 228.695 480.133 227.068C480.088 226.21 481.443 226.21 481.488 227.068Z" fill="#271F30"/>
<path d="M477.197 212.298C476.023 212.162 474.803 212.208 473.809 212.885C472.861 213.517 472.319 214.782 472.861 215.821C473.267 216.589 472.093 217.267 471.686 216.499C470.964 215.098 471.28 213.472 472.364 212.343C473.584 211.033 475.526 210.762 477.242 210.943C478.055 211.078 478.055 212.433 477.197 212.298Z" fill="#271F30"/>
<path d="M472.997 229.959C470.648 229.101 468.389 231.043 465.95 230.772C464.098 230.547 462.472 229.553 460.936 228.649C460.213 228.198 460.891 227.023 461.614 227.475C463.917 228.875 465.905 229.869 468.66 229.056C470.331 228.559 471.641 228.017 473.358 228.649C474.171 228.966 473.855 230.276 472.997 229.959Z" fill="#271F30"/>
<path d="M471.596 206.877C469.247 207.69 466.085 207.826 464.775 205.251C464.052 203.806 464.504 202.044 464.188 200.508C463.827 198.43 462.652 196.714 461.026 195.404C460.348 194.862 461.297 193.913 461.975 194.455C463.736 195.901 465.001 197.888 465.453 200.147C465.679 201.412 465.362 202.902 465.724 204.122C466.537 206.561 469.247 206.245 471.144 205.567C472.048 205.296 472.409 206.606 471.596 206.877Z" fill="#271F30"/>
<path d="M462.02 195.495C458.181 195.991 457.684 202.451 457.052 205.387C456.284 209.226 455.877 213.111 455.155 216.95C453.98 223.094 450.412 227.972 444.72 230.727C438.758 233.573 431.982 233.438 425.749 231.721C419.335 229.914 412.695 226.662 408.539 221.287C407.997 220.609 408.945 219.661 409.487 220.338C413.824 225.939 420.87 229.237 427.646 230.818C434.467 232.399 441.92 231.811 447.611 227.385C453.754 222.642 453.89 215.505 455.109 208.413C455.697 205.071 456.193 201.457 457.413 198.295C458.181 196.308 459.401 194.501 461.614 194.185C462.517 194.049 462.879 195.359 462.02 195.495Z" fill="#271F30"/>
<path d="M463.014 229.553C457.548 236.238 452.263 243.872 445.036 248.795C437.944 253.583 429.181 254.08 420.96 252.725C404.248 249.925 390.064 238.587 381.933 223.952C377.281 215.64 374.526 206.426 373.306 196.985C373.216 196.127 374.571 196.127 374.661 196.985C376.739 213.111 383.785 228.92 396.343 239.581C402.531 244.82 409.894 248.75 417.799 250.647C425.974 252.635 435.415 252.906 442.868 248.524C450.818 243.872 456.374 235.56 462.065 228.559C462.607 227.927 463.556 228.875 463.014 229.553Z" fill="#271F30"/>
<path d="M382.746 178.285C386.496 176.794 390.471 178.736 393.09 181.492C396.162 184.654 397.698 188.855 398.827 193.01C400.137 197.843 401.311 202.631 403.163 207.284C405.151 212.298 407.68 217.041 410.571 221.558C411.068 222.28 409.894 222.958 409.397 222.235C404.744 215.053 401.176 207.239 398.963 198.973C397.788 194.636 397.02 190.119 394.852 186.189C392.684 182.214 388.077 177.607 383.108 179.595C382.295 179.911 381.933 178.601 382.746 178.285Z" fill="#271F30"/>
<path d="M475.164 226.346C473.9 226.436 474.171 228.559 474.397 229.327C474.668 230.14 473.358 230.501 473.087 229.688C472.499 227.972 472.906 225.171 475.164 224.991C476.023 224.946 476.023 226.301 475.164 226.346Z" fill="#271F30"/>
<path d="M474.396 222.19C474.125 223.274 474.532 224.403 475.39 225.036C476.113 225.533 475.435 226.707 474.713 226.21C473.312 225.217 472.635 223.5 473.087 221.829C473.267 220.971 474.577 221.332 474.396 222.19Z" fill="#271F30"/>
<path d="M473.629 217.492C472.409 218.08 473.222 220.022 473.809 220.79C474.351 221.467 473.177 222.145 472.635 221.467C471.596 220.112 471.054 217.221 472.951 216.318C473.719 215.957 474.396 217.131 473.629 217.492Z" fill="#271F30"/>
<path opacity="0.11" d="M482.934 217.673C482.211 217.267 481.037 219.796 478.01 221.061C476.881 221.513 475.481 221.829 469.067 221.061C466.989 220.79 464.279 220.428 461.027 219.841C460.394 222.416 459.084 226.301 456.419 230.321C455.29 231.992 450.728 238.497 441.92 242.336C432.479 246.492 423.942 245.091 420.644 244.504C417.844 244.007 410.029 242.517 403.073 236.464C398.421 232.444 395.439 227.565 391.058 214.873C388.077 206.245 384.463 194.275 381.798 179.414C379.991 181.266 377.191 184.609 375.61 189.577C374.842 191.971 374.119 195.495 374.706 201.005C375.926 212.885 381.888 222.777 385.502 227.836C389.251 233.121 395.936 242.246 408.313 247.892C409.984 248.66 419.425 252.77 431.44 252.228C434.195 252.093 436.725 251.957 439.842 250.828C443.229 249.608 446.617 246.446 453.348 240.213C456.148 237.638 458.904 234.928 461.704 230.998C462.246 230.23 462.698 229.553 463.014 229.101C463.963 229.733 465.363 230.456 466.944 230.276C469.067 230.095 469.79 228.559 471.551 228.83C473.087 229.056 473.087 230.321 474.939 230.998C476.384 231.495 478.417 231.45 479.772 230.411C480.766 229.643 480.901 228.785 482.031 223.907C483.115 219.119 483.431 217.944 482.934 217.673Z" fill="#271F30" fill-opacity="0.65"/>
<path d="M431.304 205.929C432.162 206.11 432.479 207.826 433.021 210.491C433.337 212.117 433.472 213.518 433.517 214.511C435.324 216.634 435.505 218.577 435.55 219.345C435.595 220.925 435.053 222.145 434.014 224.404C433.292 226.03 432.524 227.294 431.982 228.153C433.924 228.604 435.279 229.869 435.369 231.224C435.46 232.534 434.285 233.573 433.834 233.934C431.801 235.696 430.31 234.386 427.736 235.786C425.658 236.916 425.839 238.181 422.812 239.852C420.915 240.891 420.328 240.665 420.102 240.529C419.334 240.032 419.605 238.406 419.741 237.322C419.921 236.012 420.463 234.025 421.954 231.721C420.192 231.089 418.431 230.456 416.714 229.869C417.979 230.005 418.25 230.05 418.25 230.05C418.25 230.005 415.133 228.74 412.468 229.869C410.255 230.818 410.074 232.805 408.222 232.941C407.183 233.031 406.009 232.444 405.512 231.586C404.473 229.824 406.415 227.249 406.867 226.662C408.719 224.223 411.429 223.5 412.649 223.274C412.242 222.371 411.791 220.925 411.7 219.119C411.61 216.047 412.875 213.789 413.462 212.84C414.275 210.175 415.043 207.51 415.856 204.8C417.121 207.736 418.521 208.639 419.605 208.865C420.825 209.136 421.502 208.549 423.49 208.865C425.387 209.181 425.477 209.768 426.561 209.723C429.091 209.452 429.949 205.658 431.304 205.929Z" fill="#271F30"/>
<path d="M430.175 220.203C429.407 221.106 428.188 221.693 426.968 221.377C425.884 221.106 425.161 220.203 425.026 219.119C424.981 218.667 425.658 218.667 425.703 219.119C425.794 220.067 426.607 220.745 427.555 220.79C428.414 220.835 429.136 220.338 429.678 219.706C429.995 219.39 430.446 219.887 430.175 220.203Z" fill="white"/>
<path d="M420.509 218.712C419.38 220.338 415.721 220.474 415.856 217.899C415.901 217.447 416.579 217.447 416.534 217.899C416.398 219.751 419.154 219.48 419.922 218.351C420.193 217.989 420.78 218.351 420.509 218.712Z" fill="white"/>
<path d="M422.27 223.726C422.27 223.771 422.225 223.816 422.225 223.861C422.089 223.907 421.909 223.952 421.773 223.997C421.863 223.816 421.999 223.726 422.225 223.726C422.044 223.681 421.909 223.59 421.728 223.545C421.773 223.5 421.818 223.41 421.863 223.365C422.089 223.455 422.27 223.545 422.496 223.636C422.18 224.132 422.315 225.036 422.496 225.533C422.722 226.21 423.67 227.114 424.258 226.21C424.483 225.849 425.071 226.165 424.845 226.572C424.257 227.475 423.038 227.43 422.36 226.662C421.683 225.894 421.321 224.223 421.909 223.319C422.089 223.003 422.631 223.184 422.541 223.59C422.451 223.861 422.315 224.042 422.089 224.178C421.909 224.313 421.638 224.178 421.592 223.997C421.502 223.59 421.638 222.642 422.27 222.913C422.857 223.139 422.631 224.042 422.36 224.403C422.27 224.539 422.044 224.629 421.909 224.539C421.412 224.178 421.412 223.5 421.954 223.229C422.315 222.958 422.631 223.545 422.27 223.726Z" fill="white"/>
<path d="M422.225 223.862C422.044 224.901 421.683 226.165 420.463 226.346C419.244 226.527 418.883 225.352 418.883 224.404C418.883 223.952 419.56 223.952 419.56 224.404C419.56 225.081 419.786 226.03 420.689 225.578C421.367 225.262 421.457 224.358 421.548 223.681C421.638 223.274 422.315 223.455 422.225 223.862Z" fill="white"/>
<path d="M434.692 220.429C433.834 215.731 430.446 211.711 425.839 210.356C421.231 209.001 415.901 210.853 413.778 215.279C413.417 216.047 412.242 215.37 412.604 214.602C414.907 209.859 420.554 207.736 425.568 208.91C430.898 210.175 435.008 214.737 436.002 220.067C436.137 220.926 434.827 221.287 434.692 220.429Z" fill="#271F30"/>
<path d="M432.298 213.608C432.343 211.349 431.937 209.091 430.988 207.058C430.898 206.877 430.807 206.742 430.762 206.561C430.446 206.019 430.401 205.929 430.672 206.29C430.943 206.516 430.898 206.697 430.491 206.968C430.401 207.103 430.265 207.284 430.175 207.42C429.498 208.504 428.91 209.633 428.413 210.807C428.097 211.62 426.787 211.259 427.103 210.446C427.555 209.362 429.633 203.851 431.395 205.071C432.253 205.658 432.795 207.645 433.066 208.594C433.563 210.22 433.744 211.937 433.698 213.653C433.608 214.466 432.253 214.466 432.298 213.608Z" fill="#271F30"/>
<path d="M418.521 209.949C418.07 209.181 417.618 208.413 417.121 207.645C416.895 207.329 416.579 207.013 416.444 206.652C416.127 206.471 416.082 206.29 416.263 206.064C416.444 205.748 416.398 205.839 416.172 206.335C415.405 208.278 414.863 210.175 414.637 212.298C414.546 213.156 413.191 213.156 413.282 212.298C413.417 210.807 413.688 209.362 414.095 207.916C414.366 207.103 414.772 205.251 415.54 204.754C416.127 204.393 416.624 204.664 417.031 205.161C418.07 206.381 418.883 207.871 419.696 209.272C420.147 209.994 418.973 210.672 418.521 209.949Z" fill="#271F30"/>
<path d="M435.912 219.706C436.228 227.294 429.362 233.799 421.728 232.218C418.205 231.495 414.953 229.192 413.282 225.985C411.52 222.597 410.526 217.222 412.83 213.879C413.327 213.156 414.501 213.834 414.004 214.556C411.972 217.583 412.965 222.552 414.591 225.578C416.082 228.333 419.018 230.276 422.09 230.908C428.91 232.263 434.828 226.391 434.557 219.706C434.557 218.802 435.912 218.802 435.912 219.706Z" fill="#271F30"/>
<path d="M434.963 231.631C433.879 227.611 428.459 227.836 425.613 229.598C422.586 231.405 421.051 234.928 420.735 238.316C420.644 239.265 420.283 240.213 421.864 239.626C422.451 239.4 423.219 238.542 423.671 238.09C424.484 237.277 425.206 236.419 426.11 235.741C427.103 234.973 428.142 234.522 429.362 234.296C431.259 233.934 434.692 234.16 434.873 231.45C434.918 230.592 436.273 230.592 436.228 231.45C436.092 233.212 434.963 234.386 433.337 234.973C432.072 235.425 430.672 235.335 429.362 235.651C427.736 236.057 426.652 236.916 425.523 238.09C424.393 239.219 422.451 241.749 420.509 241.388C418.883 241.071 419.244 239.219 419.379 238C419.876 233.663 422.18 229.372 426.426 227.701C429.994 226.301 435.144 227.114 436.228 231.315C436.499 232.128 435.189 232.489 434.963 231.631Z" fill="#271F30"/>
<path d="M416.94 225.759C415.088 223.274 410.887 224.268 408.945 225.939C407.815 226.888 407.047 228.198 406.686 229.643C406.596 230.095 406.37 231.044 406.505 231.54C406.957 232.85 407.906 232.444 408.719 231.811C409.848 230.953 410.706 229.734 412.107 229.192C412.784 228.921 413.462 228.875 414.184 228.921C414.862 228.921 415.494 229.101 416.172 229.011C417.437 228.83 419.198 227.656 417.075 226.03C416.398 225.488 417.346 224.539 418.024 225.081C419.063 225.894 419.605 227.114 419.153 228.424C418.521 230.14 416.895 230.502 415.223 230.411C413.552 230.321 412.468 230.366 411.113 231.495C410.48 232.037 409.938 232.67 409.216 233.167C408.267 233.844 406.867 234.477 405.828 233.528C403.434 231.315 406.189 226.391 408.086 224.855C410.797 222.642 415.765 222.01 418.024 225.126C418.611 225.759 417.437 226.436 416.94 225.759Z" fill="#271F30"/>
<path d="M432.343 227.882C429.407 226.933 424.935 228.785 423.129 231.179C422.993 231.36 422.722 231.179 422.858 230.998C424.755 228.424 429.272 226.527 432.434 227.565C432.659 227.611 432.569 227.927 432.343 227.882Z" fill="white"/>
<path d="M416.624 225.939C415.314 224.404 413.417 223.726 411.429 224.132C411.204 224.178 411.113 223.861 411.339 223.816C413.417 223.41 415.495 224.087 416.85 225.713C416.985 225.894 416.759 226.12 416.624 225.939Z" fill="white"/>
<path d="M430.672 206.697C430.22 207.871 429.904 209.046 429.769 210.265C429.678 210.22 429.588 210.175 429.498 210.13C429.724 209.904 429.949 209.768 430.22 209.633C430.356 209.588 430.491 209.633 430.491 209.768C430.491 210.175 430.537 210.536 430.537 210.943C430.446 210.898 430.356 210.852 430.266 210.807C430.898 210.085 431.395 211.711 431.576 212.027C431.666 212.208 431.395 212.388 431.305 212.208C431.259 212.117 430.672 210.852 430.537 211.033C430.446 211.169 430.266 211.033 430.266 210.898C430.266 210.491 430.22 210.13 430.22 209.723C430.311 209.768 430.401 209.814 430.491 209.859C430.22 209.949 430.04 210.085 429.859 210.31C429.769 210.401 429.543 210.356 429.588 210.175C429.769 208.91 430.04 207.691 430.537 206.516C430.446 206.426 430.762 206.516 430.672 206.697Z" fill="white"/>
<path d="M416.715 206.11C417.211 207.058 417.482 208.007 417.573 209.091C417.573 209.181 417.437 209.272 417.347 209.272C416.715 209.091 416.624 209.588 416.579 210.13C416.579 210.265 416.398 210.356 416.308 210.265C416.082 210.627 415.901 210.943 415.676 211.304C415.721 211.53 415.359 211.62 415.359 211.395C415.269 210.762 415.676 209.136 416.534 210.039C416.444 210.085 416.353 210.13 416.263 210.175C416.308 209.768 416.398 209.407 416.489 209C416.489 208.91 416.579 208.865 416.669 208.865C416.986 208.865 417.211 208.91 417.482 209C417.392 209.046 417.347 209.091 417.257 209.181C417.211 208.187 416.94 207.284 416.443 206.381C416.308 206.064 416.624 205.884 416.715 206.11Z" fill="white"/>
<path d="M388.393 179.324C387.76 183.66 386.541 190.526 384.011 198.656C378.681 215.64 372.402 222.913 364.091 242.607C362.013 247.531 359.077 254.938 356.186 264.289C350.811 266.05 340.828 268.444 328.632 266.321C308.577 262.843 296.787 249.563 293.49 245.543C300.356 232.895 307.267 219.209 313.997 204.529C320.682 189.984 326.509 175.981 331.568 162.656C335.814 161.075 346.926 157.552 360.568 160.894C376.874 164.824 385.863 175.981 388.393 179.324Z" fill="#E1E5EE"/>
<path opacity="0.13" d="M348.733 159.358C347.016 162.972 344.848 167.896 342.545 173.858C335.317 192.83 332.697 208.413 331.749 213.969C329.716 225.442 327.955 243.239 330.846 266.096C324.567 265.915 319.914 264.469 316.978 263.34C308.577 259.998 302.479 254.171 296.607 248.524C295.251 247.26 294.212 246.13 293.535 245.453C295.477 242.11 298.413 236.87 301.846 230.321C311.784 211.44 318.288 195.766 323.754 182.486C325.696 177.833 328.361 171.148 331.478 163.062C333.962 162.023 337.079 160.985 340.738 160.307C343.719 159.72 346.429 159.449 348.733 159.358Z" fill="#271F30" fill-opacity="0.65"/>
<path opacity="0.1" d="M318.831 195.178C318.063 203.264 317.43 210.039 316.979 214.918C315.262 234.025 314.946 239.31 314.81 242.697C314.449 250.692 314.449 257.242 314.494 261.533C311.694 260.54 308.08 258.913 304.331 256.294C299.633 252.996 296.471 249.382 294.439 246.717C302.569 229.508 310.7 212.343 318.831 195.178Z" fill="#271F30" fill-opacity="0.65"/>
<path d="M350.901 151.408C353.069 152.041 354.244 155.158 354.967 158.365C356.412 164.914 355.644 170.515 355.373 172.458C354.063 181.085 351.714 187.545 350.946 189.668C348.959 194.907 346.249 201.909 340.331 209.362C336.944 213.608 334.053 217.267 328.723 219.977C325.606 221.603 319.147 224.9 312.507 222.28C312.19 222.145 305.686 219.48 304.015 213.788C303.653 212.524 303.563 211.259 303.427 208.775C303.337 207.284 303.292 204.664 303.608 201.412C304.06 197.121 305.008 193.778 305.731 191.384C308.938 180.769 310.519 175.484 313.862 170.877C316.617 167.082 319.734 162.746 324.883 162.159C325.335 162.114 330.53 161.617 333.601 165.23C335.724 167.76 335.589 170.877 335.543 172.955C335.408 176.93 333.872 179.775 331.478 184.157C329.084 188.493 328.136 189.035 325.29 194.185C321.405 201.231 321.812 201.909 321.992 202.089C322.76 202.767 325.832 200.644 326.509 200.147C327.142 199.695 328.045 199.063 329.174 197.843C332.698 193.914 334.776 187.996 334.776 187.996C336.628 184.337 339.067 179.143 341.551 172.548C340.783 169.612 339.609 167.534 338.66 166.179C337.124 164.011 335.408 162.52 335.001 159.81C334.821 158.771 334.911 157.868 335.001 157.281C334.233 156.558 334.008 155.474 334.414 154.57C334.911 153.531 336.131 153.035 337.305 153.396C337.305 153.26 337.441 152.086 338.479 151.454C339.338 150.912 340.512 151.002 341.37 151.634C342.725 150.595 343.855 150.324 344.668 150.279C345.616 150.234 346.068 150.46 348.327 150.866C350.224 151.363 350.359 151.273 350.901 151.408Z" fill="white"/>
<path d="M339.564 170.47C338.344 167.444 336.808 164.688 335.137 161.888C334.279 160.442 333.285 158.636 334.459 157.055C337.125 153.622 340.738 158.003 341.867 160.262C342.274 161.03 341.099 161.707 340.693 160.939C340.015 159.584 339.248 157.913 337.667 157.461C337.215 157.235 336.763 157.235 336.266 157.371C336.131 158.41 335.995 159.449 335.815 160.488C335.95 161.075 336.763 162.023 337.079 162.565C338.525 164.959 339.699 167.489 340.783 170.064C341.19 170.922 339.88 171.238 339.564 170.47Z" fill="#271F30"/>
<path d="M354.334 176.297C355.012 171.464 355.102 166.541 354.56 161.707C354.063 157.281 353.115 150.55 346.972 151.815C346.113 151.996 345.752 150.686 346.61 150.505C351.443 149.511 354.47 152.944 355.283 157.326C356.503 163.695 356.548 170.199 355.644 176.659C355.509 177.517 354.199 177.156 354.334 176.297Z" fill="#271F30"/>
<path d="M348.688 155.474C348.191 154.299 347.649 153.08 346.701 152.176C345.075 150.595 342.997 151.454 341.235 152.312C340.467 152.718 339.79 151.544 340.558 151.137C342.41 150.189 344.487 149.285 346.475 150.324C348.191 151.228 349.095 153.08 349.817 154.751C350.179 155.609 349.004 156.287 348.688 155.474Z" fill="#271F30"/>
<path d="M344.668 155.88C342.997 153.712 340.783 151.454 337.892 153.17C337.124 153.622 336.447 152.447 337.215 151.996C340.648 149.963 343.539 152.176 345.616 154.886C346.159 155.609 345.21 156.558 344.668 155.88Z" fill="#271F30"/>
<path d="M341.642 156.874C340.783 155.971 339.88 155.022 338.705 154.57C337.305 153.983 334.73 154.344 335.273 156.467C335.453 157.326 334.188 157.687 333.963 156.829C333.511 154.977 334.73 153.26 336.582 152.944C339.067 152.492 341.009 154.299 342.59 155.925C343.177 156.558 342.229 157.506 341.642 156.874Z" fill="#271F30"/>
<path d="M341.099 169.793C342.68 173.18 340.738 176.613 339.383 179.73C337.486 184.112 335.498 188.493 333.059 192.558C329.897 197.889 323.031 207.465 315.849 201.999C315.172 201.457 315.849 200.283 316.527 200.825C323.438 206.109 329.852 195.449 332.653 190.526C334.279 187.635 335.724 184.654 337.079 181.627C338.434 178.601 341.461 173.858 339.88 170.47C339.564 169.702 340.738 168.98 341.099 169.793Z" fill="#271F30"/>
<path d="M335.273 166.36C339.247 179.866 327.052 190.345 322.58 201.909C322.263 202.722 320.954 202.36 321.27 201.547C325.606 190.345 337.802 179.775 333.963 166.721C333.737 165.863 335.047 165.502 335.273 166.36Z" fill="#271F30"/>
<path d="M355.689 175.936C353.386 188.583 348.01 200.554 340.106 210.717C336.266 215.595 331.885 220.338 325.832 222.326C320.682 223.997 313.591 224.855 308.803 221.738C303.563 218.396 302.885 211.575 302.66 205.929C302.614 205.071 303.969 205.071 304.015 205.929C304.286 213.201 305.912 221.242 314.539 222.28C322.489 223.229 329.897 220.067 335.272 214.331C345.255 203.716 351.805 189.848 354.425 175.574C354.515 174.716 355.825 175.078 355.689 175.936Z" fill="#271F30"/>
<path d="M334.369 168.167C332.924 162.385 325.967 161.978 321.631 164.508C317.204 167.083 314.178 171.735 311.965 176.207C309.661 180.905 307.99 185.964 306.364 190.932C304.512 196.624 303.111 202.586 304.06 208.594C304.195 209.452 302.886 209.814 302.75 208.955C301.666 202.089 303.382 195.449 305.596 188.945C307.628 183.028 309.616 176.93 313.004 171.6C315.849 167.082 320.095 162.385 325.696 161.617C330.033 161.03 334.64 163.379 335.724 167.805C335.905 168.663 334.595 169.025 334.369 168.167Z" fill="#271F30"/>
<path opacity="0.1" d="M349.23 150.821C345.616 149.376 342.093 150.957 341.235 151.363C343.764 154.706 349.14 162.791 349.591 174.219C350.269 190.481 340.557 201.276 337.124 205.116C332.698 210.039 326.916 216.453 319.463 215.55C315.262 215.053 311.287 212.253 309.254 208.684C307.222 205.116 307.357 201.231 309.796 191.203C313.546 176.026 317.656 167.128 317.069 166.857C316.482 166.586 311.603 174.219 307.945 183.795C307.583 184.789 304.557 192.829 303.473 203.896C302.795 210.717 303.382 213.517 304.783 216.002C306.951 219.841 310.474 221.558 311.829 222.145C317.295 224.449 322.534 222.822 325.019 221.964C333.917 218.983 338.66 211.756 343.448 204.483C350.811 193.236 352.844 183.615 354.786 174.355C356.141 167.941 357.045 160.488 353.657 155.022C353.07 153.893 351.76 151.86 349.23 150.821Z" fill="#271F30" fill-opacity="0.65"/>
<path d="M414.455 128.823C414.591 130.946 413.823 133.34 412.197 138.128C410.39 143.504 408.448 149.24 403.569 154.886C400.453 158.5 396.658 162.927 390.199 164.191C385.095 165.185 380.804 163.74 378.635 162.836C378.139 164.191 377.461 165.637 376.603 167.128C374.344 171.103 371.544 173.903 369.33 175.755C367.659 175.574 364.407 174.897 361.606 172.367C359.438 170.38 358.399 168.031 357.767 166.495C356.999 164.688 356.592 163.107 356.412 161.978C357.767 161.165 359.257 160.081 360.703 158.59C365.22 153.983 366.44 148.517 366.801 145.898C366.214 140.703 365.581 135.463 364.994 130.269C364.317 130.359 362.871 130.449 361.606 129.591C360.206 128.643 359.935 127.062 359.574 125.3C359.212 123.538 358.806 121.28 359.799 118.705C360.251 117.576 361.697 113.962 364.768 113.736C366.846 113.556 368.969 114.956 370.189 117.124C372.809 114.595 378.41 110.123 386.269 109.4C399.865 108.135 413.688 118.75 414.455 128.823Z" fill="white"/>
<path d="M394.4 149.466C394.761 150.415 393.722 151.77 392.954 152.447C390.831 154.299 387.082 154.209 384.372 152.944C380.578 151.183 379.358 147.388 378.816 145.672C378.183 143.775 377.37 141.29 378.68 139.077C379.81 137.135 381.797 136.457 382.565 136.231C383.333 137.812 383.92 138.987 384.372 139.754C384.914 140.703 385.095 141.019 385.411 141.742C385.862 142.691 385.908 143.052 386.54 143.91C389.115 147.253 392.638 148.472 392.638 148.472C393.451 148.653 394.174 148.834 394.4 149.466Z" fill="#271F30"/>
<path d="M413.733 134.244C410.164 145.401 405.693 158.41 394.174 163.65C389.476 165.773 383.875 166.179 379.087 164.101C373.712 161.798 370.55 156.468 368.382 151.318C365.536 144.588 364.317 137.27 364.768 129.998C364.814 129.14 366.169 129.14 366.123 129.998C365.672 137.587 367.027 145.22 370.234 152.131C373.351 158.862 378.274 164.237 386.179 164.147C402.079 163.966 408.538 146.44 412.513 133.928C412.694 133.024 413.959 133.386 413.733 134.244Z" fill="#271F30"/>
<path d="M369.692 118.389C369.647 115.679 366.846 114.053 364.362 114.821C362.058 115.589 360.613 117.847 360.116 120.106C359.664 122.274 359.845 124.803 360.522 126.881C361.064 128.598 361.742 129.501 363.82 129.501C364.542 129.501 365.265 129.23 366.033 129.23C366.891 129.23 366.891 130.585 366.033 130.585C364.497 130.585 363.007 131.308 361.516 130.54C360.432 129.998 359.799 128.914 359.348 127.785C358.173 124.713 358.038 120.557 359.528 117.531C360.748 115.047 363.368 112.924 366.259 113.24C368.924 113.511 371.002 115.679 371.047 118.344C371.047 119.247 369.692 119.247 369.692 118.389Z" fill="#271F30"/>
<path d="M367.027 143.142C367.162 150.595 363.865 157.732 357.993 162.385C357.315 162.927 356.367 161.978 357.044 161.436C362.645 157.009 365.807 150.324 365.672 143.142C365.672 142.284 367.027 142.284 367.027 143.142Z" fill="#271F30"/>
<path d="M378.681 163.379C376.964 168.121 374.164 172.277 370.414 175.62C369.782 176.207 368.788 175.258 369.466 174.671C373.08 171.464 375.745 167.534 377.416 163.017C377.687 162.204 378.997 162.565 378.681 163.379Z" fill="#271F30"/>
<path d="M370.098 176.071C366.213 177.472 362.329 174.174 359.935 171.419C357.405 168.528 355.192 164.779 356.276 160.849C356.502 159.991 357.812 160.352 357.586 161.21C356.682 164.643 358.715 167.986 360.928 170.47C363.006 172.819 366.394 175.981 369.782 174.762C370.55 174.445 370.911 175.755 370.098 176.071Z" fill="#271F30"/>
<path d="M408.674 129.501C409.261 127.83 407.906 126.023 406.912 124.848C405.422 122.996 403.118 122.5 401.401 124.397C399.414 126.565 398.872 130.449 398.601 133.25C398.42 135.192 399.098 137.677 397.969 139.393C396.749 141.245 394.49 142.329 392.367 142.736C391.509 142.916 391.148 141.607 392.006 141.426C393.135 141.2 394.129 140.839 395.123 140.206C396.749 139.122 397.11 137.948 397.155 136.005C397.201 134.334 397.246 132.708 397.517 131.037C397.969 128.281 398.736 124.758 400.995 122.906C402.892 121.325 405.241 121.37 407.093 122.951C408.855 124.487 410.887 127.423 410.029 129.817C409.668 130.675 408.358 130.314 408.674 129.501Z" fill="#271F30"/>
<path d="M396.161 119.744C395.845 114.279 389.024 112.291 385.863 116.763C385.366 117.486 384.191 116.808 384.688 116.085C388.618 110.484 397.11 112.878 397.516 119.744C397.562 120.602 396.207 120.602 396.161 119.744Z" fill="#271F30"/>
<path d="M402.304 133.114C402.937 132.256 403.298 131.308 403.343 130.269C403.705 130.449 404.021 130.675 404.382 130.856C403.343 131.533 402.801 132.618 402.846 133.837C402.575 133.611 402.259 133.385 401.988 133.205C403.117 132.798 403.84 131.533 403.614 130.359C403.931 130.495 404.292 130.63 404.608 130.766C404.066 131.082 403.614 131.533 403.298 132.121C403.163 132.392 403.072 132.663 403.027 132.979C403.027 133.205 403.027 132.934 403.072 132.843C403.163 132.663 403.253 132.527 403.343 132.347C403.705 131.533 404.879 132.256 404.518 133.024C404.247 133.656 403.795 134.334 402.982 134.379C402.304 134.424 401.717 133.973 401.627 133.295C401.491 131.804 402.666 130.314 403.885 129.636C404.247 129.41 404.789 129.591 404.879 130.043C405.24 131.985 404.156 133.882 402.304 134.56C401.853 134.695 401.446 134.334 401.446 133.927C401.401 132.211 402.214 130.675 403.66 129.772C404.066 129.501 404.698 129.862 404.698 130.359C404.653 131.624 404.247 132.843 403.479 133.882C402.937 134.515 401.762 133.837 402.304 133.114Z" fill="#271F30"/>
<path d="M389.657 124.397C389.883 124.126 390.063 123.81 390.154 123.448C390.154 123.358 390.244 122.816 390.154 122.771C390.063 122.725 389.837 123.448 389.792 123.493C389.702 123.855 389.747 124.261 389.928 124.577C389.612 124.487 389.295 124.397 388.979 124.352C390.108 123.719 390.651 122.545 390.47 121.28C390.831 121.461 391.147 121.687 391.509 121.867C390.244 122.409 389.521 123.719 389.837 125.074C389.566 124.939 389.295 124.758 389.024 124.623C389.702 124.397 390.244 123.81 390.379 123.087C390.379 123.042 390.379 122.635 390.425 122.635C390.515 122.68 390.605 122.725 390.741 122.771C390.696 122.861 390.605 122.996 390.56 123.087C390.38 123.584 390.379 124.081 390.425 124.623C390.018 124.442 389.657 124.306 389.25 124.126C389.657 123.81 389.973 123.448 390.199 122.951C390.605 122.183 391.78 122.861 391.373 123.629C391.102 124.171 390.696 124.668 390.199 125.074C389.702 125.481 389.115 125.21 389.024 124.577C388.934 123.674 389.024 122.454 389.702 121.777C390.244 121.235 391.238 121.19 391.599 122.003C392.322 123.584 390.786 125.436 389.386 125.933C389.024 126.068 388.618 125.797 388.573 125.481C388.076 123.584 389.024 121.506 390.876 120.738C391.373 120.512 391.825 120.783 391.915 121.325C392.141 123.042 391.238 124.713 389.747 125.571C389.476 125.752 388.979 125.662 388.799 125.345C388.437 124.487 388.347 123.629 388.663 122.771C388.934 122.093 389.521 121.37 390.289 121.461C392.277 121.687 391.418 124.532 390.605 125.436C390.018 126.023 389.07 125.029 389.657 124.397Z" fill="#271F30"/>
<path d="M377.867 163.243C377.867 163.288 377.867 163.288 377.913 163.333C377.642 163.198 377.37 163.017 377.099 162.882C377.145 162.882 377.19 162.837 377.235 162.837C377.099 163.153 376.964 163.514 376.828 163.83C376.738 163.65 375.519 163.062 375.157 162.746C374.344 162.069 373.667 161.165 373.034 160.307C371.634 158.455 370.595 156.422 369.737 154.299C370.188 154.164 370.595 154.073 371.047 153.938C372.402 157.823 373.35 163.243 377.145 165.547C376.828 165.863 376.512 166.179 376.196 166.495C375.293 165.14 374.389 163.74 373.486 162.385C373.079 161.752 374.028 160.985 374.57 161.572C375.293 162.34 376.061 163.153 376.783 163.921C376.467 164.237 376.151 164.553 375.835 164.869C375.157 164.056 374.525 163.198 373.938 162.34C373.486 161.707 374.48 160.939 375.022 161.527C375.654 162.204 376.286 162.701 377.099 163.108C376.738 163.288 376.422 163.514 376.061 163.695C376.061 163.559 376.106 163.424 376.106 163.288C376.196 162.43 377.551 162.43 377.461 163.288C377.461 163.424 377.416 163.559 377.416 163.695C377.37 164.192 376.874 164.553 376.377 164.282C375.473 163.785 374.751 163.243 374.028 162.475C374.389 162.204 374.751 161.933 375.112 161.662C375.654 162.43 376.196 163.198 376.783 163.921C377.325 164.598 376.422 165.547 375.835 164.869C375.112 164.101 374.344 163.288 373.621 162.52C373.983 162.249 374.344 161.978 374.705 161.707C375.609 163.062 376.512 164.463 377.416 165.818C377.777 166.405 377.054 167.083 376.467 166.766C372.311 164.237 371.227 158.636 369.737 154.345C369.466 153.486 370.731 153.215 371.047 153.983C371.995 156.287 373.215 158.545 374.841 160.442C375.609 161.346 376.828 161.843 377.551 162.656C377.732 162.837 377.913 162.882 378.003 163.108C378.229 163.514 378.048 163.921 377.596 164.101C377.551 164.101 377.506 164.146 377.461 164.146C377.099 164.282 376.738 164.011 376.648 163.695C376.648 163.65 376.648 163.65 376.603 163.604C376.241 162.791 377.551 162.43 377.867 163.243Z" fill="#271F30"/>
<path d="M372.854 161.888C372.447 161.436 372.176 160.985 372.041 160.442C371.815 159.629 372.854 159.358 373.26 159.9C374.209 161.165 375.157 162.43 376.106 163.695C376.648 164.372 375.474 165.05 374.932 164.372C373.983 163.107 373.034 161.843 372.086 160.578C372.492 160.397 372.899 160.217 373.305 160.036C373.396 160.352 373.531 160.623 373.757 160.894C374.39 161.617 373.396 162.565 372.854 161.888Z" fill="#271F30"/>
<path d="M393.723 150.686C394.987 148.156 393.632 147.208 391.103 146.53C390.787 146.44 390.47 146.395 390.199 146.259C389.115 145.762 388.483 144.678 388.031 143.639C387.308 142.104 386.902 140.432 385.953 139.032C383.966 136.006 380.443 136.141 379.313 139.755C378.184 143.368 379.584 147.388 381.978 150.144C383.153 151.499 384.598 152.764 386.315 153.351C387.805 153.893 389.115 153.712 390.561 153.08C391.6 152.628 393.497 151.725 393.768 150.55C393.948 149.692 395.258 150.053 395.078 150.912C394.581 153.261 391.058 154.706 388.935 155.022C386.631 155.384 384.463 154.254 382.701 152.809C378.771 149.557 376.332 143.82 378.229 138.851C380.262 133.476 385.773 135.464 387.805 139.71C388.438 141.019 388.754 143.233 389.793 144.181C391.103 145.401 392.774 144.949 394.129 145.898C396.026 147.253 395.846 149.647 394.897 151.499C394.491 152.176 393.316 151.499 393.723 150.686Z" fill="#271F30"/>
<path d="M394.626 149.286C387.624 149.105 384.237 142.6 382.701 136.638C382.475 135.78 383.785 135.418 384.011 136.277C385.366 141.607 388.302 147.75 394.626 147.93C395.484 147.976 395.484 149.331 394.626 149.286Z" fill="#271F30"/>
<path d="M413.191 133.521C414.004 133.973 418.927 128.598 421.005 121.415C422.541 116.176 422.089 111.523 421.547 108.587C420.779 106.238 419.695 103.709 418.205 101.134C411.79 90.1125 401.672 84.9179 396.433 82.7046C397.517 83.7435 398.781 85.0986 399.956 86.8151C401.582 89.0736 402.621 91.1966 403.298 92.9582C401.763 91.6483 400.001 90.3384 398.104 89.0736C393.858 86.2279 389.747 84.1952 386.179 82.7498C386.721 85.0534 387.308 87.3571 387.85 89.6156C386.585 88.8929 384.824 87.854 382.656 86.8151C380.262 85.6858 375.338 83.337 374.57 84.3759C374.344 84.6921 374.615 85.0534 375.022 86.3634C375.564 88.0798 375.745 89.5253 375.835 90.4739C374.435 90.248 372.854 90.0673 371.137 90.0222C369.24 89.9318 367.524 90.0222 365.988 90.1577C366.53 92.2355 367.072 94.2682 367.614 96.346C366.53 96.7525 364.994 97.5204 363.413 98.7852C359.167 102.263 357.947 106.961 357.631 108.813C356.954 113.24 358.038 116.944 358.851 118.976C361.019 114.369 365.31 112.562 367.749 113.691C369.24 114.369 370.956 116.537 370.776 118.75C370.731 119.247 370.595 119.699 370.46 120.015C372.041 118.57 374.435 116.627 377.551 114.821C380.668 113.014 384.146 110.981 388.754 110.394C397.426 109.265 404.202 114.008 406.009 115.317C408.809 117.305 413.371 120.512 414.184 125.616C414.997 129.907 412.558 133.205 413.191 133.521Z" fill="#271F30"/>
<path opacity="0.11" d="M378.816 113.691C377.416 116.853 375.519 121.777 374.48 127.965C373.396 134.108 372.04 142.013 375.338 150.776C376.467 153.757 379.132 159.494 385.456 164.869C383.965 164.824 381.391 164.553 378.68 163.108C374.254 160.804 372.311 156.964 371.724 155.609C369.601 157.687 366.756 160.939 364.587 165.547C363.368 168.121 362.6 170.515 362.148 172.503C360.929 171.419 358.67 169.07 357.631 165.366C357.225 163.921 357.089 162.611 357.089 161.527C359.709 160.081 361.38 158.32 362.329 157.19C362.735 156.693 366.756 151.634 366.53 144.633C366.439 142.103 365.897 142.058 365.491 138.174C365.129 134.696 365.31 131.759 365.491 129.817C363.187 130.766 362.013 130.314 361.471 129.998C360.432 129.365 360.161 128.236 359.212 122.5C358.715 119.428 358.444 117.892 358.354 117.079C357.812 112.698 357.541 110.484 357.812 108.723C358.58 103.709 361.787 100.366 362.871 99.3273C364.678 97.5656 366.53 96.5719 367.749 96.0298C367.207 94.1327 366.71 92.1904 366.168 90.2932C368.743 93.3196 371.137 95.3975 372.763 96.7526C376.828 100.005 379.177 100.773 381.978 103.889C384.191 106.329 385.456 108.813 386.179 110.484C383.694 111.614 381.255 112.652 378.816 113.691Z" fill="#271F30" fill-opacity="0.65"/>
<path opacity="0.17" d="M395.665 84.2404C397.291 84.6469 401.13 85.9117 404.337 89.4801C405.105 90.3835 406.912 92.5517 407.906 95.9394C408.99 99.6434 408.583 102.805 408.267 104.341C407.454 100.682 405.557 94.8554 400.95 89.3446C399.188 87.2216 397.336 85.5051 395.665 84.2404Z" fill="#271F30" fill-opacity="0.65"/>
<path opacity="0.08" d="M365.491 130.043C365.627 129.998 365.898 130.495 366.891 133.928C368.246 138.58 368.969 142.013 369.376 143.73C369.963 146.214 370.957 149.737 372.809 153.983C369.602 154.616 366.394 155.248 363.187 155.835C364.362 153.26 365.762 149.556 366.304 144.949C367.162 137.044 365.039 130.133 365.491 130.043Z" fill="#271F30" fill-opacity="0.65"/>
</svg>
