<svg width="149" height="139" viewBox="0 0 149 139" fill="none" xmlns="http://www.w3.org/2000/svg">
<path opacity="0.5" fill-rule="evenodd" clip-rule="evenodd" d="M148.915 67.1092C149.793 83.7342 143.823 100.21 133.658 113.359C123.703 126.236 109.681 139.843 93.4831 138.814C77.3101 137.787 71.9312 114.589 56.9078 108.486C43.7736 103.15 26.9431 115.469 15.4677 107.122C3.64396 98.5224 -0.332981 81.7693 0.021512 67.1092C0.371519 52.6343 8.61395 39.9857 17.3692 28.4839C25.9272 17.2413 35.8246 6.33197 49.3365 2.32428C62.6607 -1.62774 76.3285 3.32622 89.7251 7.02275C103.837 10.9168 118.66 13.843 128.954 24.2931C140.266 35.7761 148.063 50.9769 148.915 67.1092Z" fill="#007BFF"/>
<path opacity="0.5" fill-rule="evenodd" clip-rule="evenodd" d="M0.0851634 67.1092C-0.792932 83.7342 5.17685 100.21 15.3417 113.359C25.2966 126.236 39.3191 139.843 55.5169 138.814C71.6899 137.787 77.0688 114.589 92.0922 108.486C105.226 103.15 122.057 115.469 133.532 107.122C145.356 98.5224 149.333 81.7693 148.978 67.1092C148.628 52.6343 140.386 39.9857 131.631 28.4839C123.073 17.2413 113.175 6.33197 99.6635 2.32428C86.3393 -1.62774 72.6715 3.32622 59.2749 7.02275C45.1625 10.9168 30.3402 13.843 20.046 24.2931C8.73437 35.7761 0.937237 50.9769 0.0851634 67.1092Z" fill="url(#paint0_linear_294_714)"/>
<defs>
<linearGradient id="paint0_linear_294_714" x1="20" y1="121.869" x2="121.5" y2="19.3692" gradientUnits="userSpaceOnUse">
<stop stop-color="#007BFF"/>
<stop offset="1" stop-color="#007BFF" stop-opacity="0"/>
</linearGradient>
</defs>
</svg>
