<svg width="40" height="56" viewBox="0 0 40 56" fill="none" xmlns="http://www.w3.org/2000/svg">
<path d="M32.6762 44.1572L29.1373 48.0078L29.1334 48.0125V48.0132L25.5813 51.8784L24.1051 53.4846L23.9863 53.614L22.0245 55.7377L0 31.8821V0.869141L19.9997 22.5321L16.4409 26.3867L5.03425 14.0313V29.623L22.0345 48.0364L25.5866 44.1705L25.5826 44.1665L11.6641 29.0929L9.89003 27.1689L13.4508 23.3143L17.0055 27.1663L29.1373 40.3072L29.2641 40.4445L32.6762 44.1572Z" fill="white"/>
<path d="M29.2639 40.4445L29.1372 40.3071H29.1379L29.2639 40.4445Z" fill="white"/>
<path d="M32.6761 44.1579L29.1379 48.0079L29.1333 48.0125L29.1373 48.0079L32.6761 44.1572V44.1579Z" fill="white"/>
<path d="M23.6301 18.6L23.6288 18.6026L20.7441 15.4785L17.186 19.3318L36.438 40.184L39.9974 36.3287L39.9961 36.3273L39.9974 36.326L40.0001 36.3287V0.868652L23.6301 18.6ZM34.9665 30.8804L27.1908 22.4573L27.1895 22.456L34.9665 14.0328V30.8804Z" fill="white"/>
<path d="M0.685585 13.0869V13.0916L0.683594 13.0896L0.685585 13.0869Z" fill="white"/>
</svg>
