<svg width="40" height="55" viewBox="0 0 40 55" fill="none" xmlns="http://www.w3.org/2000/svg">
<path d="M32.6762 43.2887L29.1373 47.1393L29.1334 47.144V47.1446L25.5813 51.0099L24.1051 52.6161L23.9863 52.7455L22.0245 54.8692L0 31.0135V0.000610352L19.9997 21.6635L16.4409 25.5182L5.03425 13.1628V28.7545L22.0345 47.1678L25.5866 43.3019L25.5826 43.298L11.6641 28.2244L9.89003 26.3004L13.4508 22.4457L17.0055 26.2977L29.1373 39.4387L29.2641 39.576L32.6762 43.2887Z" fill="#007BFF"/>
<path d="M29.2639 39.5761L29.1372 39.4388H29.1379L29.2639 39.5761Z" fill="#007BFF"/>
<path d="M32.6761 43.2895L29.1379 47.1395L29.1333 47.1441L29.1373 47.1395L32.6761 43.2888V43.2895Z" fill="#007BFF"/>
<path d="M23.6301 17.7313L23.6288 17.734L20.7441 14.6098L17.186 18.4631L36.438 39.3153L39.9974 35.46L39.9961 35.4587L39.9974 35.4574L40.0001 35.46V0L23.6301 17.7313ZM34.9665 30.0118L27.1908 21.5886L27.1895 21.5873L34.9665 13.1642V30.0118Z" fill="#007BFF"/>
<path d="M0.685097 12.218V12.2227L0.683105 12.2207L0.685097 12.218Z" fill="#007BFF"/>
</svg>
